%FSLAX34Y34*%
%MOMM*%
%LNSMDMASK_BOTTOM*%
G71*
G01*
%ADD10R,1.600X1.700*%
%ADD11R,1.800X1.500*%
%ADD12R,1.300X1.400*%
%ADD13R,1.100X1.450*%
%ADD14R,0.900X1.900*%
%ADD15R,1.200X1.800*%
%ADD16R,1.500X1.800*%
%ADD17R,1.500X1.400*%
%ADD18R,1.400X1.300*%
%ADD19R,1.400X1.450*%
%ADD20R,1.350X1.700*%
%ADD21R,1.600X1.100*%
%ADD22R,1.000X1.400*%
%ADD23R,1.300X1.700*%
%ADD24R,1.800X1.700*%
%ADD25R,1.500X1.000*%
%ADD26R,1.800X1.100*%
%ADD27R,1.600X1.000*%
%ADD28R,1.300X1.300*%
%ADD29R,1.300X1.100*%
%ADD30R,1.300X1.500*%
%ADD31R,1.400X1.100*%
%ADD32R,0.900X1.600*%
%ADD33R,1.200X1.500*%
%ADD34R,1.500X1.600*%
%ADD35R,1.500X1.700*%
%ADD36R,1.000X1.700*%
%ADD37R,5.400X9.600*%
%LPD*%
X903663Y550588D02*
G54D10*
D03*
X930651Y550588D02*
G54D11*
D03*
X825244Y581341D02*
G54D10*
D03*
X825876Y553763D02*
G54D10*
D03*
X819149Y403226D02*
G54D12*
D03*
X877887Y417514D02*
G54D13*
D03*
X842962Y417514D02*
G54D13*
D03*
X900402Y498170D02*
G54D14*
D03*
X935038Y498475D02*
G54D13*
D03*
X786188Y514076D02*
G54D15*
D03*
X785841Y484255D02*
G54D16*
D03*
X935038Y473075D02*
G54D13*
D03*
X900402Y472770D02*
G54D14*
D03*
X787400Y458787D02*
G54D17*
D03*
X904448Y421890D02*
G54D18*
D03*
X952500Y428625D02*
G54D19*
D03*
X1066525Y503706D02*
G54D19*
D03*
X1066526Y473543D02*
G54D20*
D03*
X963451Y493281D02*
G54D21*
D03*
X963338Y456081D02*
G54D21*
D03*
X784793Y403744D02*
G54D22*
D03*
X1063626Y717550D02*
G54D23*
D03*
X1063626Y688975D02*
G54D23*
D03*
X1122363Y638175D02*
G54D23*
D03*
X977899Y427038D02*
G54D24*
D03*
X642936Y591329D02*
G54D25*
D03*
X644524Y556404D02*
G54D26*
D03*
X787400Y428624D02*
G54D16*
D03*
X1068388Y747712D02*
G54D27*
D03*
X1068388Y782637D02*
G54D21*
D03*
X1122363Y731837D02*
G54D28*
D03*
X1122363Y696912D02*
G54D29*
D03*
X1122360Y668337D02*
G54D30*
D03*
X1150938Y701675D02*
G54D31*
D03*
X1152525Y665162D02*
G54D29*
D03*
X1041400Y457200D02*
G54D31*
D03*
X1041400Y422275D02*
G54D31*
D03*
X904448Y386965D02*
G54D27*
D03*
X928260Y406015D02*
G54D32*
D03*
X963184Y404428D02*
G54D33*
D03*
X722312Y388937D02*
G54D34*
D03*
X750887Y388937D02*
G54D34*
D03*
X722312Y412749D02*
G54D35*
D03*
X754062Y412749D02*
G54D36*
D03*
X146676Y900113D02*
G54D37*
D03*
X146676Y768350D02*
G54D37*
D03*
M02*
