; Drill file
; Format: 2.4 (00.0000)
M48
INCH
T01C0.0472
T02C0.0551
T03C0.0787
T04C0.0945
T05C0.126
%
G05
G90
T01
X001070Y033530
X003010Y033530
X002820Y035720
X002820Y038720
X019820Y026410
X019820Y024470
X021450Y024660
X022640Y022910
X021070Y022470
X019700Y022470
X019700Y020530
X021070Y020470
X022640Y020100
X024140Y020350
X025760Y021100
X026950Y021280
X026320Y022280
X027890Y022660
X027890Y024600
X026320Y024220
X024450Y024660
X025760Y026220
X027700Y026220
X031450Y022660
X031450Y021470
X030070Y020720
X028700Y019720
X028700Y018530
X028700Y017350
X026950Y017410
X025760Y017100
X030070Y018720
X032010Y018600
X032010Y019720
X033200Y019910
X034200Y020720
X033450Y021470
X033450Y022660
X035390Y022660
X036570Y022660
X037950Y021720
X037760Y020530
X036570Y020720
X035450Y020720
X034200Y018720
X034200Y017600
X033200Y017970
X032010Y017470
X036640Y017530
X038950Y017970
X038950Y019160
X039760Y020470
X040890Y020660
X040320Y021720
X039200Y021720
X040890Y018720
X043260Y019280
X044260Y019280
X045260Y019280
X045260Y023910
X045390Y024780
X044260Y023910
X043260Y023910
X043070Y026160
X043070Y027350
X043070Y028530
X043260Y029910
X045450Y029720
X043260Y033850
X041950Y033030
X039760Y033030
X038200Y034100
X036200Y034100
X033070Y034100
X033070Y036030
X030200Y037220
X029010Y037220
X027820Y037220
X040510Y036780
X040510Y034910
X024140Y022280
T02
X006710Y015430
X009460Y015430
X012270Y015430
X012270Y019180
X013580Y021120
X010650Y021120
X009460Y019180
X007710Y021120
X006710Y019180
X004770Y021120
X006710Y023680
X008650Y025680
X009900Y027990
X013770Y027990
X016330Y027240
X016520Y025680
X017150Y023680
X016330Y030240
X013770Y033180
X009900Y033180
X008080Y036620
X018520Y036620
X031330Y031240
X033270Y031240
X035210Y031240
X037210Y031240
X039150Y031240
X039150Y024370
X037210Y024370
X035210Y024370
X033270Y024370
X031330Y024370
X024020Y016990
X021900Y016990
X019650Y016990
T03
X044500Y031250
X044500Y033620
T04
X002940Y016190
X002940Y019190
X023060Y029500
X023060Y033500
T05
X015310Y016750
X037120Y037250
M30
