%FSLAX34Y34*%
%MOMM*%
%LNCOPPER_BOTTOM*%
G71*
G01*
%ADD10C,2.400*%
%ADD11C,2.000*%
%ADD12C,5.000*%
%ADD13C,4.200*%
%ADD14C,4.200*%
%ADD15C,0.200*%
%ADD16C,0.300*%
%ADD17C,0.900*%
%ADD18C,1.000*%
%ADD19R,1.600X1.700*%
%ADD20R,1.800X1.500*%
%ADD21C,0.800*%
%ADD22C,1.100*%
%ADD23C,1.400*%
%ADD24R,1.300X1.400*%
%ADD25R,1.100X1.450*%
%ADD26R,0.900X1.900*%
%ADD27R,1.200X1.800*%
%ADD28R,1.500X1.800*%
%ADD29C,2.000*%
%ADD30R,1.500X1.400*%
%ADD31R,1.400X1.300*%
%ADD32R,1.400X1.450*%
%ADD33C,1.200*%
%ADD34R,1.350X1.700*%
%ADD35R,1.600X1.100*%
%ADD36R,1.000X1.400*%
%ADD37C,2.200*%
%ADD38R,1.300X1.700*%
%ADD39R,1.800X1.700*%
%ADD40R,1.500X1.000*%
%ADD41C,1.800*%
%ADD42R,1.800X1.100*%
%ADD43C,1.600*%
%ADD44R,1.600X1.000*%
%ADD45R,1.300X1.300*%
%ADD46R,1.300X1.100*%
%ADD47R,1.300X1.500*%
%ADD48R,1.400X1.100*%
%ADD49R,0.900X1.600*%
%ADD50R,1.200X1.500*%
%ADD51R,1.500X1.600*%
%ADD52R,1.500X1.700*%
%ADD53R,1.000X1.700*%
%ADD54C,5.000*%
%ADD55C,0.500*%
%ADD56C,0.450*%
%ADD57R,5.400X9.600*%
%ADD58C,0.130*%
%LPD*%
X894306Y618881D02*
G54D10*
D03*
X849602Y575541D02*
G54D11*
D03*
X945106Y618881D02*
G54D10*
D03*
X849602Y545378D02*
G54D11*
D03*
X798802Y545378D02*
G54D11*
D03*
X798802Y575541D02*
G54D11*
D03*
X763877Y526328D02*
G54D11*
D03*
X898814Y575541D02*
G54D11*
D03*
X928977Y575541D02*
G54D11*
D03*
X928977Y526328D02*
G54D11*
D03*
X900402Y526328D02*
G54D11*
D03*
X868652Y526328D02*
G54D11*
D03*
X963902Y551728D02*
G54D11*
D03*
X995652Y551728D02*
G54D11*
D03*
X959140Y521566D02*
G54D11*
D03*
X1038514Y524741D02*
G54D11*
D03*
X1009940Y519978D02*
G54D11*
D03*
X989302Y486641D02*
G54D11*
D03*
X989302Y456478D02*
G54D11*
D03*
X930564Y445366D02*
G54D11*
D03*
X1038514Y475528D02*
G54D11*
D03*
X843252Y505691D02*
G54D11*
D03*
X813090Y500928D02*
G54D11*
D03*
X813090Y472354D02*
G54D11*
D03*
X813090Y443778D02*
G54D11*
D03*
X843252Y456478D02*
G54D11*
D03*
X868652Y475528D02*
G54D11*
D03*
X868652Y446954D02*
G54D11*
D03*
X728952Y470766D02*
G54D11*
D03*
X728952Y440604D02*
G54D11*
D03*
X728952Y500928D02*
G54D11*
D03*
X728952Y470766D02*
G54D11*
D03*
X763877Y475528D02*
G54D11*
D03*
X684502Y442191D02*
G54D11*
D03*
X684502Y540616D02*
G54D11*
D03*
X1098840Y489816D02*
G54D11*
D03*
X1124240Y489816D02*
G54D11*
D03*
X1149640Y489816D02*
G54D11*
D03*
X1098840Y607291D02*
G54D11*
D03*
X1124240Y607291D02*
G54D11*
D03*
X1149640Y607291D02*
G54D11*
D03*
X995652Y551728D02*
G54D11*
D03*
X1024227Y551728D02*
G54D11*
D03*
X1152814Y629516D02*
G54D11*
D03*
X1094077Y664441D02*
G54D11*
D03*
X1094077Y694604D02*
G54D11*
D03*
X1094077Y724766D02*
G54D11*
D03*
X1154402Y754928D02*
G54D11*
D03*
X1098840Y759691D02*
G54D11*
D03*
X1028990Y934316D02*
G54D11*
D03*
X1028990Y886691D02*
G54D11*
D03*
X1009940Y839066D02*
G54D11*
D03*
X1065502Y839066D02*
G54D11*
D03*
X970252Y866054D02*
G54D11*
D03*
X919452Y866054D02*
G54D11*
D03*
X706727Y945428D02*
G54D11*
D03*
X736890Y945428D02*
G54D11*
D03*
X767052Y945428D02*
G54D11*
D03*
X840077Y866054D02*
G54D11*
D03*
X840077Y915266D02*
G54D11*
D03*
X1098840Y859704D02*
G54D11*
D03*
X654340Y666028D02*
G54D11*
D03*
X621002Y626341D02*
G54D11*
D03*
X544802Y626341D02*
G54D11*
D03*
X668627Y615228D02*
G54D11*
D03*
X668627Y566016D02*
G54D11*
D03*
X708314Y575541D02*
G54D11*
D03*
X708314Y624754D02*
G54D11*
D03*
X613064Y566016D02*
G54D11*
D03*
X613064Y516804D02*
G54D11*
D03*
X654340Y535854D02*
G54D11*
D03*
X574964Y581891D02*
G54D11*
D03*
X574964Y510454D02*
G54D11*
D03*
X535277Y570778D02*
G54D11*
D03*
X535277Y519978D02*
G54D11*
D03*
X500352Y521566D02*
G54D11*
D03*
X500352Y570778D02*
G54D11*
D03*
X503527Y621578D02*
G54D11*
D03*
X499018Y431556D02*
G54D10*
D03*
X556168Y431556D02*
G54D10*
D03*
X610144Y431556D02*
G54D10*
D03*
X654340Y434254D02*
G54D11*
D03*
X503527Y621578D02*
G54D11*
D03*
X503527Y670791D02*
G54D11*
D03*
X654340Y666028D02*
G54D11*
D03*
X703552Y666028D02*
G54D11*
D03*
X585788Y850900D02*
G54D12*
D03*
X585788Y749300D02*
G54D12*
D03*
X1130301Y854075D02*
G54D13*
D03*
X1130301Y793750D02*
G54D13*
D03*
X71727Y983528D02*
G54D11*
D03*
X71727Y907328D02*
G54D11*
D03*
X76490Y851766D02*
G54D11*
D03*
X27277Y851766D02*
G54D11*
D03*
X251368Y842718D02*
G54D10*
D03*
X349794Y842718D02*
G54D10*
D03*
X251368Y710956D02*
G54D10*
D03*
X349794Y710956D02*
G54D10*
D03*
X205331Y930031D02*
G54D10*
D03*
X470444Y930031D02*
G54D10*
D03*
X414881Y768106D02*
G54D10*
D03*
X414881Y691906D02*
G54D10*
D03*
X419644Y652218D02*
G54D10*
D03*
X219618Y652218D02*
G54D10*
D03*
X170406Y601418D02*
G54D10*
D03*
X435518Y601418D02*
G54D10*
D03*
X121194Y536331D02*
G54D10*
D03*
X195806Y536331D02*
G54D10*
D03*
X195806Y536331D02*
G54D10*
D03*
X270418Y536331D02*
G54D10*
D03*
X270418Y536331D02*
G54D10*
D03*
X345031Y536331D02*
G54D10*
D03*
X170406Y487118D02*
G54D10*
D03*
X240256Y487118D02*
G54D10*
D03*
X311694Y487118D02*
G54D10*
D03*
X170406Y391868D02*
G54D10*
D03*
X240256Y391868D02*
G54D10*
D03*
X311694Y391868D02*
G54D10*
D03*
X74614Y487362D02*
G54D14*
D03*
X74614Y411162D02*
G54D14*
D03*
X994318Y618881D02*
G54D10*
D03*
X845094Y618881D02*
G54D10*
D03*
X795881Y618881D02*
G54D10*
D03*
X894306Y793506D02*
G54D10*
D03*
X945106Y793506D02*
G54D10*
D03*
X994318Y793506D02*
G54D10*
D03*
X845094Y793506D02*
G54D10*
D03*
X795881Y793506D02*
G54D10*
D03*
G36*
X584876Y920654D02*
X584882Y920852D01*
X584898Y921047D01*
X584925Y921238D01*
X584963Y921427D01*
X585011Y921612D01*
X585071Y921794D01*
X585141Y921973D01*
X585222Y922148D01*
X585314Y922320D01*
X585416Y922490D01*
X585532Y922647D01*
X585652Y922794D01*
X585777Y922931D01*
X585906Y923059D01*
X586040Y923176D01*
X586179Y923283D01*
X586322Y923379D01*
X586471Y923465D01*
X586625Y923541D01*
X586784Y923606D01*
X586543Y923780D01*
X586327Y923971D01*
X586135Y924176D01*
X585969Y924397D01*
X585828Y924634D01*
X585713Y924886D01*
X585623Y925154D01*
X585558Y925438D01*
X585519Y925738D01*
X585506Y926054D01*
X585522Y926370D01*
X585569Y926672D01*
X585647Y926958D01*
X585756Y927231D01*
X585896Y927489D01*
X586066Y927733D01*
X586268Y927963D01*
X586500Y928180D01*
X586762Y928383D01*
X587054Y928574D01*
X587330Y928718D01*
X587616Y928848D01*
X587914Y928963D01*
X588223Y929064D01*
X588544Y929150D01*
X588877Y929220D01*
X589221Y929276D01*
X589579Y929315D01*
X589948Y929339D01*
X590330Y929348D01*
X590737Y929339D01*
X591134Y929315D01*
X591522Y929275D01*
X591902Y929219D01*
X592272Y929147D01*
X592633Y929060D01*
X592985Y928957D01*
X593328Y928838D01*
X593661Y928705D01*
X593984Y928556D01*
X594142Y928471D01*
X594291Y928389D01*
X594431Y928310D01*
X594561Y928234D01*
X594682Y928160D01*
X594793Y928088D01*
X594894Y928018D01*
X594986Y927950D01*
X595066Y927883D01*
X595136Y927818D01*
X595223Y927724D01*
X595301Y927627D01*
X595369Y927528D01*
X595427Y927424D01*
X595476Y927318D01*
X595516Y927208D01*
X595547Y927096D01*
X595569Y926979D01*
X595582Y926860D01*
X595586Y926738D01*
X595583Y926632D01*
X595571Y926530D01*
X595552Y926433D01*
X595526Y926341D01*
X595492Y926254D01*
X595450Y926171D01*
X595401Y926094D01*
X595345Y926021D01*
X595280Y925954D01*
X595208Y925892D01*
X595136Y925830D01*
X595059Y925777D01*
X594978Y925730D01*
X594893Y925690D01*
X594803Y925658D01*
X594710Y925631D01*
X594611Y925611D01*
X594509Y925597D01*
X594402Y925588D01*
X594290Y925586D01*
X594239Y925592D01*
X594172Y925611D01*
X594089Y925644D01*
X593990Y925689D01*
X593876Y925748D01*
X593747Y925819D01*
X593604Y925903D01*
X593445Y926000D01*
X593272Y926110D01*
X593084Y926234D01*
X592857Y926377D01*
X592616Y926506D01*
X592362Y926619D01*
X592095Y926717D01*
X591815Y926801D01*
X591523Y926869D01*
X591217Y926921D01*
X590899Y926959D01*
X590567Y926982D01*
X590222Y926990D01*
X590052Y926986D01*
X589885Y926977D01*
X589723Y926960D01*
X589565Y926938D01*
X589410Y926909D01*
X589260Y926873D01*
X589113Y926831D01*
X588969Y926782D01*
X588829Y926727D01*
X588692Y926666D01*
X588564Y926599D01*
X588449Y926527D01*
X588346Y926452D01*
X588257Y926373D01*
X588182Y926290D01*
X588120Y926203D01*
X588071Y926112D01*
X588036Y926018D01*
X588016Y925920D01*
X588008Y925820D01*
X588027Y925564D01*
X588084Y925335D01*
X588179Y925135D01*
X588311Y924962D01*
X588481Y924816D01*
X588689Y924697D01*
X588935Y924605D01*
X589218Y924540D01*
X589539Y924500D01*
X589898Y924488D01*
X589954Y924488D01*
X590013Y924488D01*
X590076Y924488D01*
X590143Y924489D01*
X590213Y924490D01*
X590289Y924491D01*
X590368Y924494D01*
X590453Y924497D01*
X590542Y924501D01*
X590636Y924506D01*
X590736Y924511D01*
X590831Y924516D01*
X590920Y924521D01*
X591004Y924526D01*
X591082Y924530D01*
X591155Y924534D01*
X591222Y924537D01*
X591284Y924539D01*
X591341Y924541D01*
X591392Y924542D01*
X591648Y924529D01*
X591877Y924492D01*
X592077Y924431D01*
X592250Y924345D01*
X592396Y924236D01*
X592515Y924102D01*
X592607Y923945D01*
X592672Y923765D01*
X592712Y923562D01*
X592724Y923336D01*
X592712Y923110D01*
X592675Y922908D01*
X592613Y922730D01*
X592526Y922575D01*
X592414Y922445D01*
X592277Y922338D01*
X592116Y922254D01*
X591930Y922195D01*
X591718Y922159D01*
X591483Y922148D01*
X589467Y922148D01*
X589087Y922132D01*
X588747Y922085D01*
X588448Y922007D01*
X588188Y921897D01*
X587968Y921756D01*
X587788Y921584D01*
X587648Y921380D01*
X587548Y921145D01*
X587488Y920879D01*
X587468Y920582D01*
X587477Y920455D01*
X587503Y920333D01*
X587546Y920217D01*
X587606Y920106D01*
X587682Y920001D01*
X587776Y919901D01*
X587886Y919807D01*
X588012Y919718D01*
X588155Y919634D01*
X588314Y919556D01*
X588468Y919484D01*
X588628Y919421D01*
X588792Y919367D01*
X588963Y919320D01*
X589138Y919281D01*
X589319Y919250D01*
X589505Y919226D01*
X589697Y919209D01*
X589894Y919199D01*
X590096Y919196D01*
X590244Y919199D01*
X590395Y919209D01*
X590549Y919226D01*
X590707Y919250D01*
X590868Y919281D01*
X591034Y919320D01*
X591203Y919367D01*
X591376Y919421D01*
X591553Y919484D01*
X591734Y919556D01*
X591927Y919628D01*
X592114Y919707D01*
X592297Y919790D01*
X592475Y919878D01*
X592648Y919972D01*
X592815Y920070D01*
X592977Y920173D01*
X593133Y920281D01*
X593283Y920393D01*
X593426Y920510D01*
X593571Y920617D01*
X593714Y920715D01*
X593854Y920801D01*
X593992Y920876D01*
X594128Y920939D01*
X594262Y920992D01*
X594394Y921033D01*
X594524Y921062D01*
X594651Y921080D01*
X594776Y921086D01*
X594873Y921082D01*
X594966Y921073D01*
X595058Y921056D01*
X595147Y921034D01*
X595233Y921005D01*
X595317Y920969D01*
X595398Y920927D01*
X595476Y920878D01*
X595551Y920823D01*
X595622Y920762D01*
X595694Y920695D01*
X595757Y920624D01*
X595811Y920549D01*
X595858Y920470D01*
X595897Y920388D01*
X595928Y920303D01*
X595952Y920214D01*
X595969Y920123D01*
X595979Y920030D01*
X595983Y919934D01*
X595977Y919805D01*
X595961Y919679D01*
X595934Y919555D01*
X595896Y919434D01*
X595847Y919315D01*
X595788Y919199D01*
X595718Y919085D01*
X595637Y918975D01*
X595545Y918868D01*
X595442Y918764D01*
X595244Y918584D01*
X595036Y918413D01*
X594819Y918251D01*
X594593Y918096D01*
X594358Y917949D01*
X594113Y917810D01*
X593858Y917678D01*
X593592Y917553D01*
X593317Y917436D01*
X593031Y917324D01*
X592755Y917232D01*
X592478Y917148D01*
X592200Y917073D01*
X591921Y917007D01*
X591642Y916951D01*
X591363Y916905D01*
X591082Y916868D01*
X590802Y916842D01*
X590521Y916826D01*
X590241Y916820D01*
X589785Y916830D01*
X589346Y916857D01*
X588926Y916903D01*
X588522Y916966D01*
X588137Y917048D01*
X587769Y917147D01*
X587419Y917264D01*
X587087Y917399D01*
X586774Y917550D01*
X586478Y917720D01*
X586176Y917928D01*
X585904Y918156D01*
X585664Y918402D01*
X585456Y918667D01*
X585279Y918950D01*
X585135Y919253D01*
X585022Y919574D01*
X584941Y919915D01*
X584893Y920274D01*
X584876Y920654D01*
G37*
G36*
X571934Y920654D02*
X571940Y920852D01*
X571956Y921047D01*
X571983Y921238D01*
X572021Y921427D01*
X572069Y921612D01*
X572129Y921794D01*
X572199Y921973D01*
X572280Y922148D01*
X572372Y922320D01*
X572474Y922490D01*
X572590Y922647D01*
X572710Y922794D01*
X572835Y922931D01*
X572964Y923059D01*
X573098Y923176D01*
X573237Y923283D01*
X573380Y923379D01*
X573529Y923465D01*
X573683Y923541D01*
X573842Y923606D01*
X573601Y923780D01*
X573385Y923971D01*
X573193Y924176D01*
X573027Y924397D01*
X572886Y924634D01*
X572771Y924886D01*
X572681Y925154D01*
X572616Y925438D01*
X572577Y925738D01*
X572564Y926054D01*
X572580Y926370D01*
X572627Y926672D01*
X572705Y926958D01*
X572814Y927231D01*
X572954Y927489D01*
X573124Y927733D01*
X573326Y927963D01*
X573558Y928180D01*
X573820Y928383D01*
X574112Y928574D01*
X574388Y928718D01*
X574674Y928848D01*
X574972Y928963D01*
X575281Y929064D01*
X575602Y929150D01*
X575935Y929220D01*
X576279Y929276D01*
X576637Y929315D01*
X577006Y929339D01*
X577388Y929348D01*
X577795Y929339D01*
X578192Y929315D01*
X578580Y929275D01*
X578960Y929219D01*
X579330Y929147D01*
X579691Y929060D01*
X580043Y928957D01*
X580386Y928838D01*
X580719Y928705D01*
X581042Y928556D01*
X581200Y928471D01*
X581349Y928389D01*
X581489Y928310D01*
X581619Y928234D01*
X581740Y928160D01*
X581851Y928088D01*
X581952Y928018D01*
X582044Y927950D01*
X582124Y927883D01*
X582194Y927818D01*
X582281Y927724D01*
X582359Y927627D01*
X582427Y927528D01*
X582485Y927424D01*
X582534Y927318D01*
X582574Y927208D01*
X582605Y927096D01*
X582627Y926979D01*
X582640Y926860D01*
X582644Y926738D01*
X582641Y926632D01*
X582629Y926530D01*
X582610Y926433D01*
X582584Y926341D01*
X582550Y926254D01*
X582508Y926171D01*
X582459Y926094D01*
X582403Y926021D01*
X582338Y925954D01*
X582266Y925892D01*
X582194Y925830D01*
X582117Y925777D01*
X582036Y925730D01*
X581951Y925690D01*
X581862Y925658D01*
X581768Y925631D01*
X581669Y925611D01*
X581567Y925597D01*
X581460Y925588D01*
X581348Y925586D01*
X581297Y925592D01*
X581230Y925611D01*
X581147Y925644D01*
X581048Y925689D01*
X580934Y925748D01*
X580805Y925819D01*
X580662Y925903D01*
X580503Y926000D01*
X580330Y926110D01*
X580142Y926234D01*
X579915Y926377D01*
X579674Y926506D01*
X579420Y926619D01*
X579153Y926717D01*
X578873Y926801D01*
X578581Y926869D01*
X578275Y926921D01*
X577957Y926959D01*
X577625Y926982D01*
X577280Y926990D01*
X577110Y926986D01*
X576943Y926977D01*
X576781Y926960D01*
X576623Y926938D01*
X576468Y926909D01*
X576318Y926873D01*
X576171Y926831D01*
X576027Y926782D01*
X575887Y926727D01*
X575750Y926666D01*
X575622Y926599D01*
X575507Y926527D01*
X575404Y926452D01*
X575315Y926373D01*
X575240Y926290D01*
X575178Y926203D01*
X575129Y926112D01*
X575094Y926018D01*
X575074Y925920D01*
X575067Y925820D01*
X575085Y925564D01*
X575142Y925335D01*
X575237Y925135D01*
X575369Y924962D01*
X575539Y924816D01*
X575747Y924697D01*
X575993Y924605D01*
X576276Y924540D01*
X576597Y924500D01*
X576956Y924488D01*
X577012Y924488D01*
X577071Y924488D01*
X577134Y924488D01*
X577201Y924489D01*
X577271Y924490D01*
X577347Y924491D01*
X577426Y924494D01*
X577511Y924497D01*
X577600Y924501D01*
X577694Y924506D01*
X577794Y924511D01*
X577889Y924516D01*
X577978Y924521D01*
X578062Y924526D01*
X578140Y924530D01*
X578213Y924534D01*
X578280Y924537D01*
X578342Y924539D01*
X578399Y924541D01*
X578450Y924542D01*
X578706Y924529D01*
X578935Y924492D01*
X579135Y924431D01*
X579308Y924345D01*
X579454Y924236D01*
X579573Y924102D01*
X579665Y923945D01*
X579730Y923765D01*
X579770Y923562D01*
X579782Y923336D01*
X579770Y923110D01*
X579733Y922908D01*
X579671Y922730D01*
X579584Y922575D01*
X579472Y922445D01*
X579335Y922338D01*
X579174Y922254D01*
X578988Y922195D01*
X578776Y922159D01*
X578540Y922148D01*
X576524Y922148D01*
X576145Y922132D01*
X575805Y922085D01*
X575506Y922007D01*
X575246Y921897D01*
X575026Y921756D01*
X574846Y921584D01*
X574706Y921380D01*
X574606Y921145D01*
X574546Y920879D01*
X574526Y920582D01*
X574535Y920455D01*
X574561Y920333D01*
X574604Y920217D01*
X574664Y920106D01*
X574740Y920001D01*
X574834Y919901D01*
X574944Y919807D01*
X575070Y919718D01*
X575213Y919634D01*
X575372Y919556D01*
X575526Y919484D01*
X575686Y919421D01*
X575850Y919367D01*
X576020Y919320D01*
X576196Y919281D01*
X576377Y919250D01*
X576563Y919226D01*
X576755Y919209D01*
X576952Y919199D01*
X577154Y919196D01*
X577302Y919199D01*
X577453Y919209D01*
X577607Y919226D01*
X577765Y919250D01*
X577926Y919281D01*
X578092Y919320D01*
X578261Y919367D01*
X578434Y919421D01*
X578611Y919484D01*
X578792Y919556D01*
X578985Y919628D01*
X579172Y919707D01*
X579355Y919790D01*
X579533Y919878D01*
X579706Y919972D01*
X579873Y920070D01*
X580035Y920173D01*
X580191Y920281D01*
X580341Y920393D01*
X580484Y920510D01*
X580629Y920617D01*
X580772Y920715D01*
X580912Y920801D01*
X581050Y920876D01*
X581186Y920939D01*
X581320Y920992D01*
X581452Y921033D01*
X581582Y921062D01*
X581709Y921080D01*
X581834Y921086D01*
X581931Y921082D01*
X582024Y921073D01*
X582116Y921056D01*
X582205Y921034D01*
X582291Y921005D01*
X582375Y920969D01*
X582456Y920927D01*
X582534Y920878D01*
X582609Y920823D01*
X582680Y920762D01*
X582752Y920695D01*
X582815Y920624D01*
X582869Y920549D01*
X582916Y920470D01*
X582955Y920388D01*
X582986Y920303D01*
X583010Y920214D01*
X583027Y920123D01*
X583037Y920030D01*
X583040Y919934D01*
X583035Y919805D01*
X583019Y919679D01*
X582992Y919555D01*
X582954Y919434D01*
X582905Y919315D01*
X582846Y919199D01*
X582776Y919085D01*
X582695Y918975D01*
X582603Y918868D01*
X582500Y918764D01*
X582302Y918584D01*
X582094Y918413D01*
X581877Y918251D01*
X581651Y918096D01*
X581416Y917949D01*
X581171Y917810D01*
X580916Y917678D01*
X580650Y917553D01*
X580375Y917436D01*
X580088Y917324D01*
X579813Y917232D01*
X579536Y917148D01*
X579258Y917073D01*
X578979Y917007D01*
X578700Y916951D01*
X578421Y916905D01*
X578140Y916868D01*
X577860Y916842D01*
X577579Y916826D01*
X577298Y916820D01*
X576843Y916830D01*
X576404Y916857D01*
X575984Y916903D01*
X575580Y916966D01*
X575195Y917048D01*
X574827Y917147D01*
X574477Y917264D01*
X574145Y917399D01*
X573832Y917550D01*
X573536Y917720D01*
X573234Y917928D01*
X572962Y918156D01*
X572722Y918402D01*
X572514Y918667D01*
X572337Y918950D01*
X572193Y919253D01*
X572080Y919574D01*
X571999Y919915D01*
X571951Y920274D01*
X571934Y920654D01*
G37*
G36*
X559226Y918367D02*
X559230Y918463D01*
X559241Y918556D01*
X559260Y918645D01*
X559285Y918733D01*
X559316Y918818D01*
X559355Y918900D01*
X559399Y918981D01*
X559450Y919060D01*
X559506Y919137D01*
X559568Y919214D01*
X559641Y919276D01*
X559718Y919332D01*
X559799Y919383D01*
X559885Y919427D01*
X559976Y919466D01*
X560071Y919497D01*
X560172Y919522D01*
X560278Y919541D01*
X560388Y919552D01*
X560504Y919556D01*
X565976Y919556D01*
X565692Y919735D01*
X565422Y919905D01*
X565165Y920066D01*
X564924Y920218D01*
X564696Y920361D01*
X564484Y920494D01*
X564285Y920617D01*
X564102Y920729D01*
X563934Y920832D01*
X563780Y920924D01*
X563424Y921156D01*
X563087Y921380D01*
X562771Y921594D01*
X562476Y921798D01*
X562201Y921995D01*
X561947Y922182D01*
X561713Y922361D01*
X561500Y922532D01*
X561307Y922694D01*
X561134Y922850D01*
X560857Y923120D01*
X560610Y923390D01*
X560391Y923660D01*
X560201Y923930D01*
X560041Y924200D01*
X559910Y924470D01*
X559808Y924739D01*
X559735Y925010D01*
X559691Y925280D01*
X559676Y925550D01*
X559690Y925903D01*
X559730Y926241D01*
X559798Y926562D01*
X559891Y926867D01*
X560012Y927156D01*
X560159Y927429D01*
X560332Y927685D01*
X560531Y927926D01*
X560757Y928150D01*
X561008Y928358D01*
X561287Y928543D01*
X561583Y928709D01*
X561896Y928857D01*
X562227Y928986D01*
X562574Y929096D01*
X562940Y929186D01*
X563322Y929256D01*
X563721Y929307D01*
X564138Y929337D01*
X564572Y929348D01*
X565216Y929322D01*
X565829Y929244D01*
X566412Y929115D01*
X566965Y928935D01*
X567486Y928704D01*
X567977Y928422D01*
X568437Y928090D01*
X568866Y927707D01*
X569264Y927274D01*
X569630Y926792D01*
X569676Y926721D01*
X569717Y926649D01*
X569752Y926577D01*
X569783Y926503D01*
X569808Y926429D01*
X569829Y926355D01*
X569845Y926280D01*
X569856Y926205D01*
X569862Y926129D01*
X569864Y926054D01*
X569861Y925942D01*
X569851Y925835D01*
X569834Y925733D01*
X569810Y925636D01*
X569779Y925543D01*
X569740Y925455D01*
X569693Y925372D01*
X569639Y925294D01*
X569576Y925221D01*
X569504Y925154D01*
X569436Y925087D01*
X569362Y925028D01*
X569281Y924976D01*
X569195Y924932D01*
X569102Y924895D01*
X569003Y924864D01*
X568898Y924841D01*
X568788Y924825D01*
X568672Y924815D01*
X568550Y924812D01*
X568424Y924817D01*
X568302Y924833D01*
X568186Y924861D01*
X568074Y924900D01*
X567968Y924951D01*
X567866Y925014D01*
X567769Y925088D01*
X567677Y925176D01*
X567590Y925275D01*
X567506Y925388D01*
X567283Y925686D01*
X567044Y925953D01*
X566790Y926190D01*
X566520Y926396D01*
X566235Y926571D01*
X565934Y926715D01*
X565618Y926827D01*
X565285Y926907D01*
X564937Y926955D01*
X564572Y926972D01*
X564305Y926966D01*
X564054Y926950D01*
X563819Y926924D01*
X563599Y926887D01*
X563396Y926841D01*
X563208Y926785D01*
X563035Y926719D01*
X562878Y926644D01*
X562737Y926560D01*
X562610Y926468D01*
X562539Y926402D01*
X562474Y926336D01*
X562418Y926268D01*
X562369Y926199D01*
X562327Y926128D01*
X562293Y926055D01*
X562267Y925981D01*
X562248Y925905D01*
X562236Y925827D01*
X562232Y925748D01*
X562248Y925603D01*
X562295Y925449D01*
X562373Y925287D01*
X562483Y925117D01*
X562624Y924938D01*
X562796Y924750D01*
X563000Y924553D01*
X563235Y924348D01*
X563501Y924134D01*
X563798Y923912D01*
X568028Y920888D01*
X568347Y920645D01*
X568631Y920404D01*
X568882Y920164D01*
X569100Y919925D01*
X569284Y919688D01*
X569435Y919453D01*
X569552Y919219D01*
X569636Y918987D01*
X569686Y918757D01*
X569702Y918530D01*
X569695Y918368D01*
X569674Y918216D01*
X569639Y918076D01*
X569589Y917946D01*
X569525Y917828D01*
X569446Y917720D01*
X569352Y917622D01*
X569244Y917536D01*
X569121Y917460D01*
X568982Y917396D01*
X568891Y917365D01*
X568788Y917336D01*
X568674Y917309D01*
X568549Y917284D01*
X568413Y917261D01*
X568266Y917241D01*
X568107Y917223D01*
X567936Y917206D01*
X567754Y917192D01*
X567560Y917180D01*
X567516Y917180D01*
X567448Y917180D01*
X567357Y917181D01*
X567243Y917180D01*
X567106Y917180D01*
X566946Y917180D01*
X566764Y917181D01*
X566559Y917180D01*
X566333Y917180D01*
X566084Y917180D01*
X560504Y917180D01*
X560388Y917184D01*
X560276Y917196D01*
X560168Y917215D01*
X560064Y917241D01*
X559964Y917275D01*
X559869Y917317D01*
X559779Y917366D01*
X559692Y917422D01*
X559610Y917486D01*
X559532Y917558D01*
X559476Y917624D01*
X559425Y917694D01*
X559379Y917766D01*
X559339Y917843D01*
X559305Y917922D01*
X559277Y918005D01*
X559255Y918090D01*
X559239Y918180D01*
X559230Y918272D01*
X559226Y918367D01*
G37*
G36*
X546050Y920654D02*
X546056Y920852D01*
X546072Y921047D01*
X546099Y921238D01*
X546137Y921427D01*
X546185Y921612D01*
X546245Y921794D01*
X546315Y921973D01*
X546396Y922148D01*
X546488Y922320D01*
X546590Y922490D01*
X546706Y922647D01*
X546826Y922794D01*
X546951Y922931D01*
X547080Y923059D01*
X547214Y923176D01*
X547353Y923283D01*
X547496Y923379D01*
X547645Y923465D01*
X547799Y923541D01*
X547958Y923606D01*
X547717Y923780D01*
X547501Y923971D01*
X547309Y924176D01*
X547143Y924397D01*
X547002Y924634D01*
X546887Y924886D01*
X546797Y925154D01*
X546732Y925438D01*
X546693Y925738D01*
X546680Y926054D01*
X546696Y926370D01*
X546743Y926672D01*
X546821Y926958D01*
X546930Y927231D01*
X547070Y927489D01*
X547240Y927733D01*
X547442Y927963D01*
X547674Y928180D01*
X547936Y928383D01*
X548228Y928574D01*
X548504Y928718D01*
X548790Y928848D01*
X549088Y928963D01*
X549397Y929064D01*
X549718Y929150D01*
X550051Y929220D01*
X550395Y929276D01*
X550753Y929315D01*
X551122Y929339D01*
X551504Y929348D01*
X551911Y929339D01*
X552308Y929315D01*
X552696Y929275D01*
X553076Y929219D01*
X553446Y929147D01*
X553807Y929060D01*
X554159Y928957D01*
X554502Y928838D01*
X554835Y928705D01*
X555158Y928556D01*
X555316Y928471D01*
X555465Y928389D01*
X555605Y928310D01*
X555735Y928234D01*
X555856Y928160D01*
X555967Y928088D01*
X556068Y928018D01*
X556160Y927950D01*
X556240Y927883D01*
X556310Y927818D01*
X556397Y927724D01*
X556475Y927627D01*
X556543Y927528D01*
X556601Y927424D01*
X556650Y927318D01*
X556690Y927208D01*
X556721Y927096D01*
X556743Y926979D01*
X556756Y926860D01*
X556760Y926738D01*
X556757Y926632D01*
X556745Y926530D01*
X556726Y926433D01*
X556700Y926341D01*
X556666Y926254D01*
X556624Y926171D01*
X556575Y926094D01*
X556519Y926021D01*
X556454Y925954D01*
X556382Y925892D01*
X556310Y925830D01*
X556233Y925777D01*
X556152Y925730D01*
X556067Y925690D01*
X555977Y925658D01*
X555884Y925631D01*
X555785Y925611D01*
X555683Y925597D01*
X555576Y925588D01*
X555464Y925586D01*
X555413Y925592D01*
X555346Y925611D01*
X555263Y925644D01*
X555164Y925689D01*
X555050Y925748D01*
X554921Y925819D01*
X554778Y925903D01*
X554619Y926000D01*
X554446Y926110D01*
X554258Y926234D01*
X554031Y926377D01*
X553790Y926506D01*
X553536Y926619D01*
X553269Y926717D01*
X552989Y926801D01*
X552697Y926869D01*
X552391Y926921D01*
X552073Y926959D01*
X551741Y926982D01*
X551396Y926990D01*
X551226Y926986D01*
X551059Y926977D01*
X550897Y926960D01*
X550739Y926938D01*
X550584Y926909D01*
X550434Y926873D01*
X550287Y926831D01*
X550143Y926782D01*
X550003Y926727D01*
X549866Y926666D01*
X549738Y926599D01*
X549623Y926527D01*
X549520Y926452D01*
X549431Y926373D01*
X549356Y926290D01*
X549294Y926203D01*
X549245Y926112D01*
X549210Y926018D01*
X549190Y925920D01*
X549182Y925820D01*
X549201Y925564D01*
X549258Y925335D01*
X549353Y925135D01*
X549485Y924962D01*
X549655Y924816D01*
X549863Y924697D01*
X550109Y924605D01*
X550392Y924540D01*
X550713Y924500D01*
X551072Y924488D01*
X551128Y924488D01*
X551187Y924488D01*
X551250Y924488D01*
X551317Y924489D01*
X551387Y924490D01*
X551463Y924491D01*
X551542Y924494D01*
X551627Y924497D01*
X551716Y924501D01*
X551810Y924506D01*
X551910Y924511D01*
X552005Y924516D01*
X552094Y924521D01*
X552178Y924526D01*
X552256Y924530D01*
X552329Y924534D01*
X552396Y924537D01*
X552458Y924539D01*
X552515Y924541D01*
X552566Y924542D01*
X552822Y924529D01*
X553051Y924492D01*
X553251Y924431D01*
X553424Y924345D01*
X553570Y924236D01*
X553689Y924102D01*
X553781Y923945D01*
X553846Y923765D01*
X553886Y923562D01*
X553898Y923336D01*
X553886Y923110D01*
X553849Y922908D01*
X553787Y922730D01*
X553700Y922575D01*
X553588Y922445D01*
X553451Y922338D01*
X553290Y922254D01*
X553104Y922195D01*
X552892Y922159D01*
X552656Y922148D01*
X550640Y922148D01*
X550261Y922132D01*
X549921Y922085D01*
X549622Y922007D01*
X549362Y921897D01*
X549142Y921756D01*
X548962Y921584D01*
X548822Y921380D01*
X548722Y921145D01*
X548662Y920879D01*
X548642Y920582D01*
X548651Y920455D01*
X548677Y920333D01*
X548720Y920217D01*
X548780Y920106D01*
X548856Y920001D01*
X548950Y919901D01*
X549060Y919807D01*
X549186Y919718D01*
X549329Y919634D01*
X549488Y919556D01*
X549642Y919484D01*
X549802Y919421D01*
X549966Y919367D01*
X550136Y919320D01*
X550312Y919281D01*
X550493Y919250D01*
X550679Y919226D01*
X550871Y919209D01*
X551068Y919199D01*
X551270Y919196D01*
X551418Y919199D01*
X551569Y919209D01*
X551723Y919226D01*
X551881Y919250D01*
X552042Y919281D01*
X552208Y919320D01*
X552377Y919367D01*
X552550Y919421D01*
X552727Y919484D01*
X552908Y919556D01*
X553101Y919628D01*
X553288Y919707D01*
X553471Y919790D01*
X553649Y919878D01*
X553822Y919972D01*
X553989Y920070D01*
X554151Y920173D01*
X554307Y920281D01*
X554457Y920393D01*
X554600Y920510D01*
X554745Y920617D01*
X554888Y920715D01*
X555028Y920801D01*
X555166Y920876D01*
X555302Y920939D01*
X555436Y920992D01*
X555568Y921033D01*
X555698Y921062D01*
X555825Y921080D01*
X555950Y921086D01*
X556047Y921082D01*
X556140Y921073D01*
X556232Y921056D01*
X556321Y921034D01*
X556407Y921005D01*
X556491Y920969D01*
X556572Y920927D01*
X556650Y920878D01*
X556725Y920823D01*
X556796Y920762D01*
X556868Y920695D01*
X556931Y920624D01*
X556985Y920549D01*
X557032Y920470D01*
X557071Y920388D01*
X557102Y920303D01*
X557126Y920214D01*
X557143Y920123D01*
X557153Y920030D01*
X557156Y919934D01*
X557151Y919805D01*
X557135Y919679D01*
X557108Y919555D01*
X557070Y919434D01*
X557021Y919315D01*
X556962Y919199D01*
X556892Y919085D01*
X556811Y918975D01*
X556719Y918868D01*
X556616Y918764D01*
X556418Y918584D01*
X556210Y918413D01*
X555993Y918251D01*
X555767Y918096D01*
X555532Y917949D01*
X555287Y917810D01*
X555032Y917678D01*
X554766Y917553D01*
X554491Y917436D01*
X554205Y917324D01*
X553929Y917232D01*
X553652Y917148D01*
X553374Y917073D01*
X553095Y917007D01*
X552816Y916951D01*
X552537Y916905D01*
X552256Y916868D01*
X551976Y916842D01*
X551695Y916826D01*
X551414Y916820D01*
X550959Y916830D01*
X550520Y916857D01*
X550100Y916903D01*
X549696Y916966D01*
X549311Y917048D01*
X548943Y917147D01*
X548593Y917264D01*
X548261Y917399D01*
X547948Y917550D01*
X547652Y917720D01*
X547350Y917928D01*
X547078Y918156D01*
X546838Y918402D01*
X546630Y918667D01*
X546453Y918950D01*
X546309Y919253D01*
X546196Y919574D01*
X546115Y919915D01*
X546067Y920274D01*
X546050Y920654D01*
G37*
G36*
X532910Y920150D02*
X532914Y920250D01*
X532923Y920348D01*
X532939Y920443D01*
X532961Y920534D01*
X532989Y920622D01*
X533023Y920707D01*
X533063Y920788D01*
X533109Y920867D01*
X533160Y920942D01*
X533216Y921014D01*
X533283Y921076D01*
X533353Y921132D01*
X533425Y921183D01*
X533502Y921227D01*
X533581Y921265D01*
X533664Y921297D01*
X533749Y921322D01*
X533839Y921341D01*
X533931Y921352D01*
X534026Y921356D01*
X537644Y921356D01*
X540902Y921356D01*
X537644Y925496D01*
X537644Y921356D01*
X537644Y921356D01*
X534026Y921356D01*
X534026Y921356D01*
X535070Y921356D01*
X535070Y927584D01*
X535075Y927733D01*
X535088Y927877D01*
X535109Y928017D01*
X535138Y928153D01*
X535176Y928283D01*
X535222Y928409D01*
X535276Y928530D01*
X535338Y928646D01*
X535407Y928756D01*
X535484Y928862D01*
X535574Y928954D01*
X535668Y929036D01*
X535767Y929109D01*
X535871Y929173D01*
X535979Y929226D01*
X536092Y929270D01*
X536209Y929304D01*
X536330Y929328D01*
X536455Y929343D01*
X536582Y929348D01*
X536806Y929337D01*
X537023Y929305D01*
X537234Y929251D01*
X537438Y929177D01*
X537635Y929082D01*
X537827Y928966D01*
X538011Y928831D01*
X538190Y928675D01*
X538361Y928499D01*
X538526Y928304D01*
X543638Y921824D01*
X543787Y921633D01*
X543919Y921450D01*
X544036Y921275D01*
X544136Y921109D01*
X544221Y920951D01*
X544290Y920801D01*
X544344Y920660D01*
X544382Y920529D01*
X544405Y920406D01*
X544412Y920294D01*
X544397Y920047D01*
X544352Y919827D01*
X544275Y919633D01*
X544168Y919464D01*
X544030Y919322D01*
X543860Y919205D01*
X543659Y919114D01*
X543426Y919049D01*
X543162Y919010D01*
X542864Y918998D01*
X537644Y918998D01*
X537644Y918044D01*
X537630Y917808D01*
X537588Y917596D01*
X537518Y917411D01*
X537420Y917250D01*
X537293Y917113D01*
X537139Y917001D01*
X536957Y916914D01*
X536746Y916852D01*
X536507Y916815D01*
X536240Y916802D01*
X536020Y916815D01*
X535822Y916852D01*
X535646Y916914D01*
X535494Y917000D01*
X535365Y917111D01*
X535259Y917246D01*
X535177Y917405D01*
X535118Y917587D01*
X535082Y917794D01*
X535070Y918026D01*
X535070Y918998D01*
X534008Y918998D01*
X533913Y919001D01*
X533821Y919010D01*
X533732Y919027D01*
X533647Y919049D01*
X533565Y919079D01*
X533488Y919114D01*
X533414Y919156D01*
X533344Y919205D01*
X533278Y919260D01*
X533216Y919322D01*
X533160Y919388D01*
X533109Y919459D01*
X533063Y919534D01*
X533023Y919613D01*
X532989Y919695D01*
X532961Y919780D01*
X532939Y919869D01*
X532923Y919960D01*
X532914Y920053D01*
X532910Y920150D01*
G37*
G36*
X503664Y918367D02*
X503668Y918463D01*
X503678Y918556D01*
X503698Y918645D01*
X503722Y918733D01*
X503754Y918818D01*
X503792Y918900D01*
X503836Y918981D01*
X503888Y919060D01*
X503944Y919137D01*
X504006Y919214D01*
X504078Y919276D01*
X504156Y919332D01*
X504236Y919383D01*
X504322Y919427D01*
X504414Y919466D01*
X504508Y919497D01*
X504610Y919522D01*
X504716Y919541D01*
X504826Y919552D01*
X504942Y919556D01*
X510414Y919556D01*
X510130Y919735D01*
X509860Y919905D01*
X509602Y920066D01*
X509362Y920218D01*
X509134Y920361D01*
X508922Y920494D01*
X508722Y920617D01*
X508540Y920729D01*
X508372Y920832D01*
X508218Y920924D01*
X507862Y921156D01*
X507524Y921380D01*
X507208Y921594D01*
X506914Y921798D01*
X506638Y921995D01*
X506384Y922182D01*
X506150Y922361D01*
X505938Y922532D01*
X505744Y922694D01*
X505572Y922850D01*
X505294Y923120D01*
X505048Y923390D01*
X504828Y923660D01*
X504638Y923930D01*
X504478Y924200D01*
X504348Y924470D01*
X504246Y924739D01*
X504172Y925010D01*
X504128Y925280D01*
X504114Y925550D01*
X504128Y925903D01*
X504168Y926241D01*
X504236Y926562D01*
X504328Y926867D01*
X504450Y927156D01*
X504596Y927429D01*
X504770Y927685D01*
X504968Y927926D01*
X505194Y928150D01*
X505446Y928358D01*
X505724Y928543D01*
X506020Y928709D01*
X506334Y928857D01*
X506664Y928986D01*
X507012Y929096D01*
X507378Y929186D01*
X507760Y929256D01*
X508158Y929307D01*
X508576Y929337D01*
X509010Y929348D01*
X509654Y929322D01*
X510266Y929244D01*
X510850Y929115D01*
X511402Y928935D01*
X511924Y928704D01*
X512414Y928422D01*
X512874Y928090D01*
X513304Y927707D01*
X513702Y927274D01*
X514068Y926792D01*
X514114Y926721D01*
X514154Y926649D01*
X514190Y926577D01*
X514220Y926503D01*
X514246Y926429D01*
X514266Y926355D01*
X514282Y926280D01*
X514294Y926205D01*
X514300Y926129D01*
X514302Y926054D01*
X514298Y925942D01*
X514288Y925835D01*
X514272Y925733D01*
X514248Y925636D01*
X514216Y925543D01*
X514178Y925455D01*
X514130Y925372D01*
X514076Y925294D01*
X514014Y925221D01*
X513942Y925154D01*
X513874Y925087D01*
X513800Y925028D01*
X513718Y924976D01*
X513632Y924932D01*
X513540Y924895D01*
X513440Y924864D01*
X513336Y924841D01*
X513226Y924825D01*
X513110Y924815D01*
X512988Y924812D01*
X512862Y924817D01*
X512740Y924833D01*
X512624Y924861D01*
X512512Y924900D01*
X512406Y924951D01*
X512304Y925014D01*
X512206Y925088D01*
X512114Y925176D01*
X512028Y925275D01*
X511944Y925388D01*
X511720Y925686D01*
X511482Y925953D01*
X511228Y926190D01*
X510958Y926396D01*
X510672Y926571D01*
X510372Y926715D01*
X510056Y926827D01*
X509722Y926907D01*
X509374Y926955D01*
X509010Y926972D01*
X508742Y926966D01*
X508492Y926950D01*
X508256Y926924D01*
X508036Y926887D01*
X507834Y926841D01*
X507646Y926785D01*
X507472Y926719D01*
X507316Y926644D01*
X507174Y926560D01*
X507048Y926468D01*
X506976Y926402D01*
X506912Y926336D01*
X506856Y926268D01*
X506806Y926199D01*
X506764Y926128D01*
X506730Y926055D01*
X506704Y925981D01*
X506686Y925905D01*
X506674Y925827D01*
X506670Y925748D01*
X506686Y925603D01*
X506732Y925449D01*
X506810Y925287D01*
X506920Y925117D01*
X507062Y924938D01*
X507234Y924750D01*
X507438Y924553D01*
X507672Y924348D01*
X507938Y924134D01*
X508236Y923912D01*
X512466Y920888D01*
X512784Y920645D01*
X513068Y920404D01*
X513320Y920164D01*
X513538Y919925D01*
X513722Y919688D01*
X513872Y919453D01*
X513990Y919219D01*
X514074Y918987D01*
X514124Y918757D01*
X514140Y918530D01*
X514132Y918368D01*
X514112Y918216D01*
X514076Y918076D01*
X514026Y917946D01*
X513962Y917828D01*
X513884Y917720D01*
X513790Y917622D01*
X513682Y917536D01*
X513558Y917460D01*
X513420Y917396D01*
X513328Y917365D01*
X513226Y917336D01*
X513112Y917309D01*
X512986Y917284D01*
X512850Y917261D01*
X512704Y917241D01*
X512544Y917223D01*
X512374Y917206D01*
X512192Y917192D01*
X511998Y917180D01*
X511954Y917180D01*
X511886Y917180D01*
X511794Y917181D01*
X511680Y917180D01*
X511544Y917180D01*
X511384Y917180D01*
X511202Y917181D01*
X510996Y917180D01*
X510770Y917180D01*
X510522Y917180D01*
X504942Y917180D01*
X504826Y917184D01*
X504714Y917196D01*
X504606Y917215D01*
X504502Y917241D01*
X504402Y917275D01*
X504306Y917317D01*
X504216Y917366D01*
X504130Y917422D01*
X504048Y917486D01*
X503970Y917558D01*
X503914Y917624D01*
X503862Y917694D01*
X503816Y917766D01*
X503776Y917843D01*
X503742Y917922D01*
X503714Y918005D01*
X503692Y918090D01*
X503676Y918180D01*
X503668Y918272D01*
X503664Y918367D01*
G37*
G54D15*
X519112Y923925D02*
X530225Y923925D01*
G36*
X561631Y948608D02*
X563764Y959354D01*
X560904Y959354D01*
X559482Y951942D01*
X554914Y959354D01*
X551691Y959354D01*
X558391Y948608D01*
X561631Y948608D01*
G37*
G36*
X547439Y948450D02*
X547967Y948467D01*
X548470Y948518D01*
X548948Y948603D01*
X549400Y948720D01*
X549828Y948872D01*
X550230Y949058D01*
X550607Y949278D01*
X550959Y949532D01*
X551286Y949819D01*
X551588Y950140D01*
X551857Y950486D01*
X552088Y950847D01*
X552280Y951223D01*
X552432Y951615D01*
X552546Y952021D01*
X552620Y952443D01*
X552656Y952879D01*
X552652Y953331D01*
X552610Y953799D01*
X552528Y954281D01*
X552423Y954719D01*
X552291Y955143D01*
X552131Y955552D01*
X551945Y955947D01*
X551732Y956327D01*
X551492Y956693D01*
X551224Y957044D01*
X550930Y957381D01*
X550609Y957703D01*
X550260Y958010D01*
X549891Y958296D01*
X549508Y958551D01*
X549111Y958776D01*
X548700Y958971D01*
X548275Y959136D01*
X547836Y959272D01*
X547382Y959377D01*
X546915Y959452D01*
X546434Y959497D01*
X545938Y959512D01*
X545416Y959495D01*
X544919Y959444D01*
X544447Y959359D01*
X544000Y959240D01*
X543577Y959087D01*
X543180Y958900D01*
X542807Y958679D01*
X542459Y958425D01*
X542136Y958136D01*
X541837Y957813D01*
X541570Y957465D01*
X541342Y957102D01*
X541153Y956723D01*
X541003Y956329D01*
X540891Y955919D01*
X540818Y955493D01*
X540783Y955051D01*
X540787Y954693D01*
X543642Y954693D01*
X543657Y954914D01*
X543690Y955126D01*
X543742Y955331D01*
X543813Y955527D01*
X543902Y955715D01*
X544010Y955895D01*
X544137Y956067D01*
X544279Y956226D01*
X544434Y956368D01*
X544601Y956494D01*
X544781Y956603D01*
X544974Y956695D01*
X545180Y956770D01*
X545398Y956829D01*
X545628Y956871D01*
X545872Y956896D01*
X546128Y956904D01*
X546384Y956896D01*
X546635Y956871D01*
X546880Y956829D01*
X547120Y956770D01*
X547354Y956695D01*
X547583Y956603D01*
X547806Y956494D01*
X548024Y956368D01*
X548236Y956226D01*
X548443Y956067D01*
X548639Y955895D01*
X548821Y955715D01*
X548987Y955527D01*
X549138Y955331D01*
X549275Y955126D01*
X549396Y954914D01*
X549502Y954693D01*
X549593Y954464D01*
X549670Y954226D01*
X549731Y953981D01*
X549731Y953981D01*
X549772Y953735D01*
X549795Y953498D01*
X549799Y953269D01*
X549784Y953048D01*
X549751Y952835D01*
X549699Y952630D01*
X549628Y952434D01*
X549539Y952246D01*
X549431Y952066D01*
X549304Y951895D01*
X549162Y951735D01*
X549007Y951593D01*
X548840Y951467D01*
X548659Y951359D01*
X548467Y951266D01*
X548261Y951191D01*
X548043Y951132D01*
X547812Y951091D01*
X547569Y951065D01*
X547313Y951057D01*
X547056Y951065D01*
X546805Y951091D01*
X546560Y951132D01*
X546319Y951191D01*
X546084Y951266D01*
X545855Y951359D01*
X545630Y951467D01*
X545412Y951593D01*
X545198Y951735D01*
X544990Y951895D01*
X544792Y952066D01*
X544610Y952246D01*
X544443Y952434D01*
X544292Y952630D01*
X544156Y952835D01*
X544036Y953048D01*
X543931Y953269D01*
X543842Y953498D01*
X543768Y953735D01*
X543710Y953981D01*
X543669Y954226D01*
X543646Y954464D01*
X543642Y954693D01*
X540787Y954693D01*
X540788Y954594D01*
X540831Y954121D01*
X540913Y953633D01*
X541017Y953195D01*
X541148Y952772D01*
X541304Y952364D01*
X541487Y951970D01*
X541695Y951592D01*
X541929Y951229D01*
X542189Y950881D01*
X542475Y950548D01*
X542787Y950230D01*
X543125Y949927D01*
X543484Y949646D01*
X543859Y949395D01*
X544250Y949173D01*
X544657Y948981D01*
X545081Y948819D01*
X545520Y948686D01*
X545976Y948583D01*
X546448Y948510D01*
X546935Y948465D01*
X547439Y948450D01*
G37*
G36*
X537768Y951136D02*
X533043Y951136D01*
X533580Y948608D01*
X541134Y948608D01*
X538842Y959354D01*
X536014Y959354D01*
X537768Y951136D01*
G37*
G36*
X533830Y956825D02*
X533294Y959354D01*
X524128Y959354D01*
X524664Y956825D01*
X527826Y956825D01*
X529580Y948608D01*
X532408Y948608D01*
X530670Y956825D01*
X533830Y956825D01*
G37*
G36*
X517554Y948608D02*
X525550Y948608D01*
X523258Y959354D01*
X515262Y959354D01*
X515800Y956825D01*
X520966Y956825D01*
X521314Y955182D01*
X516478Y955182D01*
X516984Y952795D01*
X521820Y952795D01*
X522184Y951136D01*
X517000Y951136D01*
X517554Y948608D01*
G37*
G36*
X516542Y948608D02*
X514250Y959354D01*
X511422Y959354D01*
X512196Y955719D01*
X508766Y959354D01*
X505464Y959354D01*
X509842Y954723D01*
X507424Y948608D01*
X510568Y948608D01*
X511990Y952432D01*
X513160Y951183D01*
X513712Y948608D01*
X516542Y948608D01*
G37*
G54D16*
X504825Y963612D02*
X563562Y963612D01*
G36*
X504825Y965112D02*
X504825Y962112D01*
X503325Y962112D01*
X503325Y965112D01*
X504825Y965112D01*
G37*
G36*
X563562Y962112D02*
X563562Y965112D01*
X565062Y965112D01*
X565062Y962112D01*
X563562Y962112D01*
G37*
G54D16*
X504825Y942975D02*
X563562Y942975D01*
G36*
X504825Y944475D02*
X504825Y941475D01*
X503325Y941475D01*
X503325Y944475D01*
X504825Y944475D01*
G37*
G36*
X563562Y941475D02*
X563562Y944475D01*
X565062Y944475D01*
X565062Y941475D01*
X563562Y941475D01*
G37*
G36*
X1003300Y515938D02*
X1006637Y496617D01*
X1006475Y485775D01*
X1005454Y476539D01*
X1000125Y467302D01*
X992188Y461962D01*
X989302Y456478D01*
X994163Y449327D01*
X999288Y454413D01*
X1004578Y462125D01*
X1007476Y471549D01*
X1014412Y514350D01*
X1003300Y515938D01*
G37*
G54D15*
X1003300Y515938D02*
X1006637Y496617D01*
X1006475Y485775D01*
X1005454Y476539D01*
X1000125Y467302D01*
X992188Y461962D01*
X989302Y456478D01*
X994163Y449327D01*
X999288Y454413D01*
X1004578Y462125D01*
X1007476Y471549D01*
X1014412Y514350D01*
X1003300Y515938D01*
G36*
X1006764Y524741D02*
X1019175Y547688D01*
X1024227Y551728D01*
X1023938Y544512D01*
X1012825Y523875D01*
X1006764Y524741D01*
G37*
G54D15*
X1006764Y524741D02*
X1019175Y547688D01*
X1024227Y551728D01*
X1023938Y544512D01*
X1012825Y523875D01*
X1006764Y524741D01*
G36*
X963612Y542925D02*
X966788Y542925D01*
X976312Y533400D01*
X982662Y515938D01*
X982662Y493712D01*
X984250Y491693D01*
X989302Y486641D01*
X993775Y492125D01*
X989302Y509298D01*
X982662Y530225D01*
X969962Y549275D01*
X963612Y542925D01*
G37*
G54D15*
X963612Y542925D02*
X966788Y542925D01*
X976312Y533400D01*
X982662Y515938D01*
X982662Y493712D01*
X984250Y491693D01*
X989302Y486641D01*
X993775Y492125D01*
X989302Y509298D01*
X982662Y530225D01*
X969962Y549275D01*
X963612Y542925D01*
G36*
X985838Y614362D02*
X987714Y551728D01*
X999404Y551728D01*
X1003300Y555625D01*
X1003300Y617538D01*
X1001712Y619125D01*
X985838Y614362D01*
G37*
G54D15*
X985838Y614362D02*
X987714Y551728D01*
X999404Y551728D01*
X1003300Y555625D01*
X1003300Y617538D01*
X1001712Y619125D01*
X985838Y614362D01*
G36*
X945106Y618881D02*
X950912Y595312D01*
X955675Y571500D01*
X955675Y550862D01*
X958850Y556780D01*
X963902Y551728D01*
X963902Y557502D01*
X966788Y560388D01*
X963612Y593725D01*
X962025Y603550D01*
X954088Y622300D01*
X945106Y618881D01*
G37*
G54D15*
X945106Y618881D02*
X950912Y595312D01*
X955675Y571500D01*
X955675Y550862D01*
X958850Y556780D01*
X963902Y551728D01*
X963902Y557502D01*
X966788Y560388D01*
X963612Y593725D01*
X962025Y603550D01*
X954088Y622300D01*
X945106Y618881D01*
G54D17*
X849602Y545378D02*
X849602Y545810D01*
X847725Y547688D01*
X847725Y573664D01*
X849602Y575541D01*
G54D18*
X849602Y575541D02*
X895350Y574675D01*
X898814Y575541D01*
G36*
X920750Y525462D02*
X914400Y512762D01*
X914400Y460375D01*
X911225Y454025D01*
X911225Y446088D01*
X925512Y412750D01*
X928688Y412750D01*
X928688Y419100D01*
X927100Y420688D01*
X912812Y446088D01*
X914400Y454025D01*
X919162Y466725D01*
X919162Y506412D01*
X931862Y519112D01*
X920750Y525462D01*
G37*
G54D15*
X920750Y525462D02*
X914400Y512762D01*
X914400Y460375D01*
X911225Y454025D01*
X911225Y446088D01*
X925512Y412750D01*
X928688Y412750D01*
X928688Y419100D01*
X927100Y420688D01*
X912812Y446088D01*
X914400Y454025D01*
X919162Y466725D01*
X919162Y506412D01*
X931862Y519112D01*
X920750Y525462D01*
X903663Y550588D02*
G54D19*
D03*
X930651Y550588D02*
G54D20*
D03*
X825244Y581341D02*
G54D19*
D03*
G36*
X830262Y574675D02*
X839788Y574675D01*
X842962Y571500D01*
X845561Y571500D01*
X849602Y575541D01*
X850900Y581025D01*
X831850Y587375D01*
X830262Y574675D01*
G37*
G54D15*
X830262Y574675D02*
X839788Y574675D01*
X842962Y571500D01*
X845561Y571500D01*
X849602Y575541D01*
X850900Y581025D01*
X831850Y587375D01*
X830262Y574675D01*
X825876Y553763D02*
G54D19*
D03*
G36*
X868652Y526328D02*
X868652Y522577D01*
X866775Y520700D01*
X866775Y519112D01*
X876300Y509588D01*
X880890Y502288D01*
X882925Y494152D01*
X884238Y482600D01*
X884238Y461962D01*
X886150Y445042D01*
X884960Y441036D01*
X873765Y423479D01*
X881062Y423862D01*
X882650Y422275D01*
X884238Y428625D01*
X890588Y439738D01*
X890588Y442912D01*
X886691Y456117D01*
X885462Y497820D01*
X883935Y504169D01*
X881062Y509588D01*
X876300Y523875D01*
X876300Y525462D01*
X874712Y527050D01*
X868652Y526328D01*
G37*
G54D15*
X868652Y526328D02*
X868652Y522577D01*
X866775Y520700D01*
X866775Y519112D01*
X876300Y509588D01*
X880890Y502288D01*
X882925Y494152D01*
X884238Y482600D01*
X884238Y461962D01*
X886150Y445042D01*
X884960Y441036D01*
X873765Y423479D01*
X881062Y423862D01*
X882650Y422275D01*
X884238Y428625D01*
X890588Y439738D01*
X890588Y442912D01*
X886691Y456117D01*
X885462Y497820D01*
X883935Y504169D01*
X881062Y509588D01*
X876300Y523875D01*
X876300Y525462D01*
X874712Y527050D01*
X868652Y526328D01*
G54D21*
X843252Y456478D02*
X842962Y417514D01*
G54D18*
X813090Y472354D02*
X843252Y456478D01*
G54D22*
X868652Y475528D02*
X868652Y446954D01*
G54D23*
X813090Y500928D02*
X843252Y505691D01*
X819149Y403226D02*
G54D24*
D03*
G54D18*
X813090Y443778D02*
X819149Y403226D01*
X877887Y417514D02*
G54D25*
D03*
G54D21*
X819149Y403226D02*
X822325Y400050D01*
X865188Y400050D01*
X877888Y412750D01*
X842962Y417514D02*
G54D25*
D03*
G36*
X796925Y569912D02*
X800100Y568325D01*
X812044Y557815D01*
X817562Y547688D01*
X825876Y553763D01*
X821012Y553763D01*
X810635Y564862D01*
X804862Y573088D01*
X796925Y569912D01*
G37*
G54D15*
X796925Y569912D02*
X800100Y568325D01*
X812044Y557815D01*
X817562Y547688D01*
X825876Y553763D01*
X821012Y553763D01*
X810635Y564862D01*
X804862Y573088D01*
X796925Y569912D01*
G36*
X795338Y539750D02*
X803275Y522288D01*
X808038Y508000D01*
X817562Y508000D01*
X819150Y506412D01*
X806450Y523875D01*
X804862Y538162D01*
X804862Y539750D01*
X803275Y541338D01*
X795338Y539750D01*
G37*
G54D15*
X795338Y539750D02*
X803275Y522288D01*
X808038Y508000D01*
X817562Y508000D01*
X819150Y506412D01*
X806450Y523875D01*
X804862Y538162D01*
X804862Y539750D01*
X803275Y541338D01*
X795338Y539750D01*
G36*
X900938Y569048D02*
X931385Y569048D01*
X934271Y571934D01*
X931862Y582612D01*
X903288Y622300D01*
X903288Y620712D01*
X890588Y608012D01*
X903288Y590550D01*
X903288Y580014D01*
X898814Y575541D01*
X900938Y569048D01*
G37*
G54D15*
X900938Y569048D02*
X931385Y569048D01*
X934271Y571934D01*
X931862Y582612D01*
X903288Y622300D01*
X903288Y620712D01*
X890588Y608012D01*
X903288Y590550D01*
X903288Y580014D01*
X898814Y575541D01*
X900938Y569048D01*
X900402Y498170D02*
G54D26*
D03*
X935038Y498475D02*
G54D25*
D03*
G36*
X895350Y531812D02*
X898525Y546100D01*
X909638Y546100D01*
X906462Y531812D01*
X895350Y531812D01*
G37*
G54D15*
X895350Y531812D02*
X898525Y546100D01*
X909638Y546100D01*
X906462Y531812D01*
X895350Y531812D01*
G36*
X957262Y558800D02*
X946150Y554038D01*
X931862Y554038D01*
X930275Y555625D01*
X930275Y550964D01*
X930651Y550588D01*
X936625Y549275D01*
X938567Y547406D01*
X946424Y547413D01*
X958850Y544512D01*
X957262Y558800D01*
G37*
G54D15*
X957262Y558800D02*
X946150Y554038D01*
X931862Y554038D01*
X930275Y555625D01*
X930275Y550964D01*
X930651Y550588D01*
X936625Y549275D01*
X938567Y547406D01*
X946424Y547413D01*
X958850Y544512D01*
X957262Y558800D01*
X786188Y514076D02*
G54D27*
D03*
X785841Y484255D02*
G54D28*
D03*
G36*
X769938Y531812D02*
X769938Y530326D01*
X785812Y519112D01*
X786188Y514076D01*
X781050Y506412D01*
X765175Y520268D01*
X763877Y526328D01*
X769938Y531812D01*
G37*
G54D15*
X769938Y531812D02*
X769938Y530326D01*
X785812Y519112D01*
X786188Y514076D01*
X781050Y506412D01*
X765175Y520268D01*
X763877Y526328D01*
X769938Y531812D01*
G36*
X763588Y481012D02*
X782638Y490538D01*
X782638Y481012D01*
X777875Y477838D01*
X766762Y469900D01*
X763588Y481012D01*
G37*
G54D15*
X763588Y481012D02*
X782638Y490538D01*
X782638Y481012D01*
X777875Y477838D01*
X766762Y469900D01*
X763588Y481012D01*
G54D29*
X610144Y431556D02*
X630238Y433388D01*
X654340Y434254D01*
X935038Y473075D02*
G54D25*
D03*
G54D17*
X900402Y526328D02*
X900402Y498170D01*
X900402Y472770D02*
G54D26*
D03*
G54D17*
X900402Y498170D02*
X900402Y472770D01*
G36*
X896911Y463351D02*
X898157Y456009D01*
X898645Y442367D01*
X898525Y419100D01*
X904875Y422274D01*
X909638Y422275D01*
X909638Y427038D01*
X903884Y430938D01*
X901700Y434975D01*
X900112Y442912D01*
X900112Y452438D01*
X903903Y463387D01*
X896911Y463351D01*
G37*
G54D15*
X896911Y463351D02*
X898157Y456009D01*
X898645Y442367D01*
X898525Y419100D01*
X904875Y422274D01*
X909638Y422275D01*
X909638Y427038D01*
X903884Y430938D01*
X901700Y434975D01*
X900112Y442912D01*
X900112Y452438D01*
X903903Y463387D01*
X896911Y463351D01*
G36*
X959140Y521566D02*
X958128Y521566D01*
X952500Y522288D01*
X935038Y501650D01*
X935038Y498475D01*
X939800Y498475D01*
X942975Y501650D01*
X960438Y514350D01*
X959140Y521566D01*
G37*
G54D15*
X959140Y521566D02*
X958128Y521566D01*
X952500Y522288D01*
X935038Y501650D01*
X935038Y498475D01*
X939800Y498475D01*
X942975Y501650D01*
X960438Y514350D01*
X959140Y521566D01*
X787400Y458787D02*
G54D30*
D03*
G54D21*
X787400Y458787D02*
X813090Y472354D01*
X904448Y421890D02*
G54D31*
D03*
X952500Y428625D02*
G54D32*
D03*
G54D33*
X930564Y445366D02*
X952500Y428625D01*
X1066525Y503706D02*
G54D32*
D03*
X1066526Y473543D02*
G54D34*
D03*
X963451Y493281D02*
G54D35*
D03*
X963338Y456081D02*
G54D35*
D03*
X784793Y403744D02*
G54D36*
D03*
G36*
X817562Y547688D02*
X817912Y533387D01*
X821187Y526874D01*
X827000Y522463D01*
X846588Y519313D01*
X853744Y515647D01*
X857487Y510195D01*
X858445Y504345D01*
X858064Y497990D01*
X855662Y492125D01*
X852788Y488248D01*
X848162Y484102D01*
X842947Y479713D01*
X840885Y476082D01*
X839754Y471829D01*
X839788Y459943D01*
X843252Y456478D01*
X843252Y463840D01*
X847990Y458402D01*
X847977Y471524D01*
X848622Y477199D01*
X851549Y480754D01*
X856859Y489017D01*
X860350Y493517D01*
X862153Y499087D01*
X862282Y503128D01*
X862012Y509588D01*
X857747Y514525D01*
X853005Y517870D01*
X849141Y519785D01*
X842393Y523220D01*
X837681Y526274D01*
X833144Y530346D01*
X829796Y535263D01*
X828675Y538162D01*
X828675Y550964D01*
X825876Y553763D01*
X817562Y547688D01*
G37*
G54D15*
X817562Y547688D02*
X817912Y533387D01*
X821187Y526874D01*
X827000Y522463D01*
X846588Y519313D01*
X853744Y515647D01*
X857487Y510195D01*
X858445Y504345D01*
X858064Y497990D01*
X855662Y492125D01*
X852788Y488248D01*
X848162Y484102D01*
X842947Y479713D01*
X840885Y476082D01*
X839754Y471829D01*
X839788Y459943D01*
X843252Y456478D01*
X843252Y463840D01*
X847990Y458402D01*
X847977Y471524D01*
X848622Y477199D01*
X851549Y480754D01*
X856859Y489017D01*
X860350Y493517D01*
X862153Y499087D01*
X862282Y503128D01*
X862012Y509588D01*
X857747Y514525D01*
X853005Y517870D01*
X849141Y519785D01*
X842393Y523220D01*
X837681Y526274D01*
X833144Y530346D01*
X829796Y535263D01*
X828675Y538162D01*
X828675Y550964D01*
X825876Y553763D01*
X817562Y547688D01*
G36*
X699903Y942541D02*
X713113Y916365D01*
X791097Y783876D01*
X848521Y783876D01*
X849260Y784615D01*
X849260Y793491D01*
X839053Y803698D01*
X823720Y810096D01*
X815923Y818110D01*
X815835Y890201D01*
X773841Y947157D01*
X764392Y947157D01*
X758968Y941732D01*
X750306Y925459D01*
X750219Y925459D01*
X748556Y923797D01*
X726571Y923797D01*
X712248Y945932D01*
X699903Y942541D01*
G37*
G54D15*
X699903Y942541D02*
X713113Y916365D01*
X791097Y783876D01*
X848521Y783876D01*
X849260Y784615D01*
X849260Y793491D01*
X839053Y803698D01*
X823720Y810096D01*
X815923Y818110D01*
X815835Y890201D01*
X773841Y947157D01*
X764392Y947157D01*
X758968Y941732D01*
X750306Y925459D01*
X750219Y925459D01*
X748556Y923797D01*
X726571Y923797D01*
X712248Y945932D01*
X699903Y942541D01*
G36*
X885825Y790575D02*
X884106Y790529D01*
X879090Y801303D01*
X859389Y820737D01*
X846138Y820738D01*
X838318Y822725D01*
X833125Y825937D01*
X830865Y829161D01*
X829213Y831923D01*
X828720Y847471D01*
X828302Y854342D01*
X828211Y858078D01*
X828744Y865603D01*
X829983Y870289D01*
X832868Y876304D01*
X835345Y879167D01*
X839055Y881678D01*
X842917Y883485D01*
X872975Y883296D01*
X878712Y882573D01*
X886157Y879250D01*
X890754Y874694D01*
X893287Y870790D01*
X895350Y866775D01*
X899069Y859502D01*
X904404Y852230D01*
X914400Y844550D01*
X914400Y838200D01*
X917575Y835025D01*
X917575Y820738D01*
X915988Y819150D01*
X911225Y819150D01*
X872116Y853447D01*
X862136Y856775D01*
X856365Y857795D01*
X854523Y857290D01*
X853550Y856059D01*
X852947Y852520D01*
X852978Y848701D01*
X858990Y843636D01*
X887412Y823912D01*
X890582Y820592D01*
X893472Y816556D01*
X903873Y801932D01*
X900112Y799312D01*
X894306Y793506D01*
X885825Y790575D01*
G37*
G54D15*
X885825Y790575D02*
X884106Y790529D01*
X879090Y801303D01*
X859389Y820737D01*
X846138Y820738D01*
X838318Y822725D01*
X833125Y825937D01*
X830865Y829161D01*
X829213Y831923D01*
X828720Y847471D01*
X828302Y854342D01*
X828211Y858078D01*
X828744Y865603D01*
X829983Y870289D01*
X832868Y876304D01*
X835345Y879167D01*
X839055Y881678D01*
X842917Y883485D01*
X872975Y883296D01*
X878712Y882573D01*
X886157Y879250D01*
X890754Y874694D01*
X893287Y870790D01*
X895350Y866775D01*
X899069Y859502D01*
X904404Y852230D01*
X914400Y844550D01*
X914400Y838200D01*
X917575Y835025D01*
X917575Y820738D01*
X915988Y819150D01*
X911225Y819150D01*
X872116Y853447D01*
X862136Y856775D01*
X856365Y857795D01*
X854523Y857290D01*
X853550Y856059D01*
X852947Y852520D01*
X852978Y848701D01*
X858990Y843636D01*
X887412Y823912D01*
X890582Y820592D01*
X893472Y816556D01*
X903873Y801932D01*
X900112Y799312D01*
X894306Y793506D01*
X885825Y790575D01*
G54D37*
X994318Y793506D02*
X894306Y793506D01*
X1063626Y717550D02*
G54D38*
D03*
X1063626Y688975D02*
G54D38*
D03*
X1122363Y638175D02*
G54D38*
D03*
G36*
X727075Y944562D02*
X727075Y976584D01*
X728652Y979400D01*
X731026Y982216D01*
X733330Y984794D01*
X736247Y987312D01*
X739590Y989163D01*
X745082Y990612D01*
X842035Y990539D01*
X845350Y989428D01*
X847987Y986668D01*
X849397Y983726D01*
X850012Y980785D01*
X850900Y933450D01*
X859588Y939559D01*
X874228Y960110D01*
X890214Y979988D01*
X898360Y986473D01*
X903885Y989370D01*
X909727Y991073D01*
X1038657Y989496D01*
X1044833Y988320D01*
X1049630Y985818D01*
X1054634Y981451D01*
X1059255Y974739D01*
X1062724Y960089D01*
X1065813Y940414D01*
X1056731Y941411D01*
X1055688Y942975D01*
X1044886Y962037D01*
X1033614Y976243D01*
X1024078Y983665D01*
X1018682Y985036D01*
X973504Y986746D01*
X918519Y986160D01*
X912965Y985435D01*
X908070Y983673D01*
X904248Y980909D01*
X900026Y976707D01*
X893587Y963463D01*
X891870Y956468D01*
X891905Y949607D01*
X892006Y942881D01*
X893587Y936424D01*
X904875Y911225D01*
X914273Y892841D01*
X922864Y878224D01*
X928688Y868362D01*
X912812Y868362D01*
X911794Y863928D01*
X909724Y871003D01*
X900112Y884238D01*
X892381Y889777D01*
X884635Y893213D01*
X875838Y895600D01*
X851810Y895468D01*
X838200Y906462D01*
X830262Y906462D01*
X823912Y912812D01*
X783128Y965106D01*
X780286Y966010D01*
X777191Y966551D01*
X756145Y966482D01*
X750489Y963176D01*
X747712Y958850D01*
X745487Y953816D01*
X744349Y948237D01*
X742950Y944562D01*
X727075Y944562D01*
G37*
G54D15*
X727075Y944562D02*
X727075Y976584D01*
X728652Y979400D01*
X731026Y982216D01*
X733330Y984794D01*
X736247Y987312D01*
X739590Y989163D01*
X745082Y990612D01*
X842035Y990539D01*
X845350Y989428D01*
X847987Y986668D01*
X849397Y983726D01*
X850012Y980785D01*
X850900Y933450D01*
X859588Y939559D01*
X874228Y960110D01*
X890214Y979988D01*
X898360Y986473D01*
X903885Y989370D01*
X909727Y991073D01*
X1038657Y989496D01*
X1044833Y988320D01*
X1049630Y985818D01*
X1054634Y981451D01*
X1059255Y974739D01*
X1062724Y960089D01*
X1065813Y940414D01*
X1056731Y941411D01*
X1055688Y942975D01*
X1044886Y962037D01*
X1033614Y976243D01*
X1024078Y983665D01*
X1018682Y985036D01*
X973504Y986746D01*
X918519Y986160D01*
X912965Y985435D01*
X908070Y983673D01*
X904248Y980909D01*
X900026Y976707D01*
X893587Y963463D01*
X891870Y956468D01*
X891905Y949607D01*
X892006Y942881D01*
X893587Y936424D01*
X904875Y911225D01*
X914273Y892841D01*
X922864Y878224D01*
X928688Y868362D01*
X912812Y868362D01*
X911794Y863928D01*
X909724Y871003D01*
X900112Y884238D01*
X892381Y889777D01*
X884635Y893213D01*
X875838Y895600D01*
X851810Y895468D01*
X838200Y906462D01*
X830262Y906462D01*
X823912Y912812D01*
X783128Y965106D01*
X780286Y966010D01*
X777191Y966551D01*
X756145Y966482D01*
X750489Y963176D01*
X747712Y958850D01*
X745487Y953816D01*
X744349Y948237D01*
X742950Y944562D01*
X727075Y944562D01*
G36*
X1031875Y520700D02*
X1054100Y498475D01*
X1062882Y498475D01*
X1068113Y503706D01*
X1072436Y502602D01*
X1073950Y504824D01*
X1075798Y506518D01*
X1077843Y507599D01*
X1080138Y508290D01*
X1102015Y508324D01*
X1105586Y506840D01*
X1108728Y504624D01*
X1116798Y490507D01*
X1124240Y489816D01*
X1125319Y489816D01*
X1130030Y494527D01*
X1129962Y495504D01*
X1115467Y510700D01*
X1058383Y510779D01*
X1044705Y527566D01*
X1031875Y520700D01*
G37*
G54D15*
X1031875Y520700D02*
X1054100Y498475D01*
X1062882Y498475D01*
X1068113Y503706D01*
X1072436Y502602D01*
X1073950Y504824D01*
X1075798Y506518D01*
X1077843Y507599D01*
X1080138Y508290D01*
X1102015Y508324D01*
X1105586Y506840D01*
X1108728Y504624D01*
X1116798Y490507D01*
X1124240Y489816D01*
X1125319Y489816D01*
X1130030Y494527D01*
X1129962Y495504D01*
X1115467Y510700D01*
X1058383Y510779D01*
X1044705Y527566D01*
X1031875Y520700D01*
G36*
X1066647Y474791D02*
X1071697Y475933D01*
X1073750Y474102D01*
X1077544Y474108D01*
X1092126Y491184D01*
X1097471Y491184D01*
X1098840Y489816D01*
X1098840Y480523D01*
X1088582Y470886D01*
X1085602Y469243D01*
X1082499Y468395D01*
X1073151Y468032D01*
X1072014Y469170D01*
X1066647Y474791D01*
G37*
G54D15*
X1066647Y474791D02*
X1071697Y475933D01*
X1073750Y474102D01*
X1077544Y474108D01*
X1092126Y491184D01*
X1097471Y491184D01*
X1098840Y489816D01*
X1098840Y480523D01*
X1088582Y470886D01*
X1085602Y469243D01*
X1082499Y468395D01*
X1073151Y468032D01*
X1072014Y469170D01*
X1066647Y474791D01*
X977899Y427038D02*
G54D39*
D03*
G36*
X1031847Y519148D02*
X1034037Y513933D01*
X1034036Y507948D01*
X1032689Y505208D01*
X1022047Y493526D01*
X1019402Y489544D01*
X1017791Y485562D01*
X1016896Y481778D01*
X1016798Y475766D01*
X1016798Y450044D01*
X1016074Y446864D01*
X1012255Y442472D01*
X1005424Y438670D01*
X1000404Y436878D01*
X985128Y433513D01*
X985128Y420390D01*
X984859Y420121D01*
X1015410Y435195D01*
X1018817Y437715D01*
X1020205Y441043D01*
X1021099Y447293D01*
X1021099Y476217D01*
X1021156Y481215D01*
X1022459Y486380D01*
X1023429Y488605D01*
X1025356Y490591D01*
X1028679Y494233D01*
X1033890Y499330D01*
X1038225Y504825D01*
X1038933Y514523D01*
X1040158Y515748D01*
X1031847Y519148D01*
G37*
G54D15*
X1031847Y519148D02*
X1034037Y513933D01*
X1034036Y507948D01*
X1032689Y505208D01*
X1022047Y493526D01*
X1019402Y489544D01*
X1017791Y485562D01*
X1016896Y481778D01*
X1016798Y475766D01*
X1016798Y450044D01*
X1016074Y446864D01*
X1012255Y442472D01*
X1005424Y438670D01*
X1000404Y436878D01*
X985128Y433513D01*
X985128Y420390D01*
X984859Y420121D01*
X1015410Y435195D01*
X1018817Y437715D01*
X1020205Y441043D01*
X1021099Y447293D01*
X1021099Y476217D01*
X1021156Y481215D01*
X1022459Y486380D01*
X1023429Y488605D01*
X1025356Y490591D01*
X1028679Y494233D01*
X1033890Y499330D01*
X1038225Y504825D01*
X1038933Y514523D01*
X1040158Y515748D01*
X1031847Y519148D01*
G36*
X1038225Y504825D02*
X1050925Y504825D01*
X1047750Y504825D01*
X1041400Y511175D01*
X1038225Y511175D01*
X1035050Y508000D01*
X1038225Y504825D01*
G37*
G54D15*
X1038225Y504825D02*
X1050925Y504825D01*
X1047750Y504825D01*
X1041400Y511175D01*
X1038225Y511175D01*
X1035050Y508000D01*
X1038225Y504825D01*
G36*
X588962Y728662D02*
X657225Y695325D01*
X663000Y691710D01*
X668391Y687286D01*
X673100Y679450D01*
X674412Y672874D01*
X674894Y667574D01*
X675047Y662736D01*
X674511Y659268D01*
X673100Y654050D01*
X669925Y650875D01*
X666751Y647989D01*
X662498Y644747D01*
X658325Y643337D01*
X653483Y642426D01*
X647975Y642775D01*
X639862Y645687D01*
X625610Y653609D01*
X618868Y657338D01*
X613760Y659225D01*
X608267Y659795D01*
X604299Y659357D01*
X597946Y656712D01*
X594153Y654486D01*
X590665Y651696D01*
X587553Y648211D01*
X585822Y644663D01*
X584556Y641296D01*
X583665Y637174D01*
X583346Y631365D01*
X584937Y624153D01*
X588007Y618019D01*
X591850Y612205D01*
X595587Y607845D01*
X599207Y604232D01*
X603464Y601177D01*
X607640Y598207D01*
X611023Y596032D01*
X615363Y593788D01*
X619753Y591911D01*
X624776Y590364D01*
X629232Y589471D01*
X650627Y589311D01*
X654779Y588830D01*
X661923Y587417D01*
X667932Y586449D01*
X672375Y585046D01*
X677665Y583607D01*
X681222Y581350D01*
X683583Y577894D01*
X684902Y573704D01*
X685800Y568325D01*
X685824Y560724D01*
X683696Y554336D01*
X677959Y545462D01*
X684925Y545211D01*
X684502Y540616D01*
X691842Y543132D01*
X689700Y551467D01*
X689683Y579675D01*
X692702Y588170D01*
X699389Y599428D01*
X705583Y608704D01*
X717149Y624564D01*
X740573Y644992D01*
X768796Y663630D01*
X847725Y663575D01*
X882171Y663629D01*
X889540Y660724D01*
X936274Y613728D01*
X950530Y627018D01*
X908119Y670745D01*
X756287Y670682D01*
X708166Y632925D01*
X699907Y625221D01*
X696395Y615725D01*
X692177Y608722D01*
X687425Y604192D01*
X682041Y600172D01*
X675063Y597737D01*
X667842Y595975D01*
X661147Y595119D01*
X649993Y594692D01*
X629454Y594196D01*
X624453Y595743D01*
X618668Y597792D01*
X610642Y601836D01*
X604675Y607302D01*
X597952Y615226D01*
X595091Y621258D01*
X593576Y626875D01*
X593964Y634203D01*
X594967Y637633D01*
X597088Y641324D01*
X599487Y644179D01*
X603449Y646626D01*
X606271Y647481D01*
X611050Y647880D01*
X615105Y648025D01*
X619125Y647700D01*
X629647Y644110D01*
X635000Y641350D01*
X643840Y636077D01*
X648796Y635554D01*
X655649Y636571D01*
X660420Y638022D01*
X665027Y639891D01*
X670374Y643173D01*
X675221Y646943D01*
X679709Y651859D01*
X680897Y655499D01*
X681776Y662036D01*
X682515Y667495D01*
X682730Y673391D01*
X682635Y678883D01*
X682122Y684551D01*
X680383Y688295D01*
X677080Y694384D01*
X673100Y700088D01*
X604838Y762000D01*
X588962Y728662D01*
G37*
G54D15*
X588962Y728662D02*
X657225Y695325D01*
X663000Y691710D01*
X668391Y687286D01*
X673100Y679450D01*
X674412Y672874D01*
X674894Y667574D01*
X675047Y662736D01*
X674511Y659268D01*
X673100Y654050D01*
X669925Y650875D01*
X666751Y647989D01*
X662498Y644747D01*
X658325Y643337D01*
X653483Y642426D01*
X647975Y642775D01*
X639862Y645687D01*
X625610Y653609D01*
X618868Y657338D01*
X613760Y659225D01*
X608267Y659795D01*
X604299Y659357D01*
X597946Y656712D01*
X594153Y654486D01*
X590665Y651696D01*
X587553Y648211D01*
X585822Y644663D01*
X584556Y641296D01*
X583665Y637174D01*
X583346Y631365D01*
X584937Y624153D01*
X588007Y618019D01*
X591850Y612205D01*
X595587Y607845D01*
X599207Y604232D01*
X603464Y601177D01*
X607640Y598207D01*
X611023Y596032D01*
X615363Y593788D01*
X619753Y591911D01*
X624776Y590364D01*
X629232Y589471D01*
X650627Y589311D01*
X654779Y588830D01*
X661923Y587417D01*
X667932Y586449D01*
X672375Y585046D01*
X677665Y583607D01*
X681222Y581350D01*
X683583Y577894D01*
X684902Y573704D01*
X685800Y568325D01*
X685824Y560724D01*
X683696Y554336D01*
X677959Y545462D01*
X684925Y545211D01*
X684502Y540616D01*
X691842Y543132D01*
X689700Y551467D01*
X689683Y579675D01*
X692702Y588170D01*
X699389Y599428D01*
X705583Y608704D01*
X717149Y624564D01*
X740573Y644992D01*
X768796Y663630D01*
X847725Y663575D01*
X882171Y663629D01*
X889540Y660724D01*
X936274Y613728D01*
X950530Y627018D01*
X908119Y670745D01*
X756287Y670682D01*
X708166Y632925D01*
X699907Y625221D01*
X696395Y615725D01*
X692177Y608722D01*
X687425Y604192D01*
X682041Y600172D01*
X675063Y597737D01*
X667842Y595975D01*
X661147Y595119D01*
X649993Y594692D01*
X629454Y594196D01*
X624453Y595743D01*
X618668Y597792D01*
X610642Y601836D01*
X604675Y607302D01*
X597952Y615226D01*
X595091Y621258D01*
X593576Y626875D01*
X593964Y634203D01*
X594967Y637633D01*
X597088Y641324D01*
X599487Y644179D01*
X603449Y646626D01*
X606271Y647481D01*
X611050Y647880D01*
X615105Y648025D01*
X619125Y647700D01*
X629647Y644110D01*
X635000Y641350D01*
X643840Y636077D01*
X648796Y635554D01*
X655649Y636571D01*
X660420Y638022D01*
X665027Y639891D01*
X670374Y643173D01*
X675221Y646943D01*
X679709Y651859D01*
X680897Y655499D01*
X681776Y662036D01*
X682515Y667495D01*
X682730Y673391D01*
X682635Y678883D01*
X682122Y684551D01*
X680383Y688295D01*
X677080Y694384D01*
X673100Y700088D01*
X604838Y762000D01*
X588962Y728662D01*
X642936Y591329D02*
G54D40*
D03*
G54D41*
X535277Y570778D02*
X574964Y581891D01*
X644524Y556404D02*
G54D42*
D03*
G54D43*
X503527Y621578D02*
X505353Y606418D01*
X505242Y593547D01*
X503537Y581766D01*
X500352Y570778D01*
G36*
X703675Y674366D02*
X706129Y674366D01*
X727927Y696164D01*
X729894Y700556D01*
X729583Y706188D01*
X727927Y710727D01*
X721154Y717500D01*
X594480Y835390D01*
X594480Y857143D01*
X602892Y867295D01*
X762079Y698455D01*
X941547Y698482D01*
X999377Y627936D01*
X997750Y622312D01*
X994318Y618881D01*
X986725Y613363D01*
X977000Y626250D01*
X926771Y688637D01*
X745294Y688411D01*
X739893Y685913D01*
X711024Y662117D01*
X703675Y674366D01*
G37*
G54D15*
X703675Y674366D02*
X706129Y674366D01*
X727927Y696164D01*
X729894Y700556D01*
X729583Y706188D01*
X727927Y710727D01*
X721154Y717500D01*
X594480Y835390D01*
X594480Y857143D01*
X602892Y867295D01*
X762079Y698455D01*
X941547Y698482D01*
X999377Y627936D01*
X997750Y622312D01*
X994318Y618881D01*
X986725Y613363D01*
X977000Y626250D01*
X926771Y688637D01*
X745294Y688411D01*
X739893Y685913D01*
X711024Y662117D01*
X703675Y674366D01*
G36*
X574264Y870913D02*
X412750Y777875D01*
X412750Y765175D01*
X419100Y758825D01*
X587278Y828550D01*
X574264Y870913D01*
G37*
G54D15*
X574264Y870913D02*
X412750Y777875D01*
X412750Y765175D01*
X419100Y758825D01*
X587278Y828550D01*
X574264Y870913D01*
G54D33*
X621002Y626341D02*
X632217Y620348D01*
X644647Y616913D01*
X655762Y615196D01*
X668627Y615228D01*
G36*
X684502Y442191D02*
X684502Y449739D01*
X682221Y449727D01*
X687113Y452862D01*
X692281Y458070D01*
X696057Y463518D01*
X704856Y478646D01*
X711548Y489299D01*
X717844Y498020D01*
X722183Y505227D01*
X722276Y502911D01*
X728952Y500928D01*
X728952Y496556D01*
X726183Y493787D01*
X728635Y492729D01*
X723607Y492439D01*
X721104Y491463D01*
X713166Y482988D01*
X701775Y465237D01*
X692062Y439870D01*
X684502Y442191D01*
G37*
G54D15*
X684502Y442191D02*
X684502Y449739D01*
X682221Y449727D01*
X687113Y452862D01*
X692281Y458070D01*
X696057Y463518D01*
X704856Y478646D01*
X711548Y489299D01*
X717844Y498020D01*
X722183Y505227D01*
X722276Y502911D01*
X728952Y500928D01*
X728952Y496556D01*
X726183Y493787D01*
X728635Y492729D01*
X723607Y492439D01*
X721104Y491463D01*
X713166Y482988D01*
X701775Y465237D01*
X692062Y439870D01*
X684502Y442191D01*
X787400Y428624D02*
G54D28*
D03*
G36*
X547795Y434167D02*
X564922Y508135D01*
X574800Y518988D01*
X610815Y524237D01*
X619007Y521286D01*
X626068Y514640D01*
X640088Y509695D01*
X679744Y509761D01*
X691351Y513470D01*
X699724Y518578D01*
X707323Y531485D01*
X713624Y545448D01*
X733454Y559391D01*
X753835Y584121D01*
X763121Y601005D01*
X769899Y612702D01*
X775156Y618218D01*
X781050Y622300D01*
X784047Y624114D01*
X789432Y626011D01*
X792462Y622300D01*
X795881Y618881D01*
X796378Y612910D01*
X777019Y600796D01*
X765295Y580212D01*
X763022Y575739D01*
X760443Y572063D01*
X757559Y568111D01*
X754306Y564772D01*
X750189Y560175D01*
X745581Y556251D01*
X736667Y549057D01*
X724705Y539521D01*
X715827Y529896D01*
X705551Y515287D01*
X699385Y506634D01*
X680444Y493587D01*
X638424Y493605D01*
X602143Y493867D01*
X592922Y491761D01*
X584942Y487003D01*
X574744Y476678D01*
X568518Y464353D01*
X563867Y437331D01*
X547795Y434167D01*
G37*
G54D15*
X547795Y434167D02*
X564922Y508135D01*
X574800Y518988D01*
X610815Y524237D01*
X619007Y521286D01*
X626068Y514640D01*
X640088Y509695D01*
X679744Y509761D01*
X691351Y513470D01*
X699724Y518578D01*
X707323Y531485D01*
X713624Y545448D01*
X733454Y559391D01*
X753835Y584121D01*
X763121Y601005D01*
X769899Y612702D01*
X775156Y618218D01*
X781050Y622300D01*
X784047Y624114D01*
X789432Y626011D01*
X792462Y622300D01*
X795881Y618881D01*
X796378Y612910D01*
X777019Y600796D01*
X765295Y580212D01*
X763022Y575739D01*
X760443Y572063D01*
X757559Y568111D01*
X754306Y564772D01*
X750189Y560175D01*
X745581Y556251D01*
X736667Y549057D01*
X724705Y539521D01*
X715827Y529896D01*
X705551Y515287D01*
X699385Y506634D01*
X680444Y493587D01*
X638424Y493605D01*
X602143Y493867D01*
X592922Y491761D01*
X584942Y487003D01*
X574744Y476678D01*
X568518Y464353D01*
X563867Y437331D01*
X547795Y434167D01*
G36*
X705467Y581960D02*
X710554Y575541D01*
X714941Y571154D01*
X717303Y574259D01*
X730612Y586780D01*
X736395Y593315D01*
X740831Y599790D01*
X745716Y608397D01*
X752319Y620877D01*
X757558Y628626D01*
X765424Y636000D01*
X770046Y639848D01*
X777495Y643037D01*
X813103Y643031D01*
X815548Y641987D01*
X817616Y640474D01*
X836818Y612126D01*
X845094Y618881D01*
X852464Y625147D01*
X833621Y647405D01*
X827964Y648542D01*
X778912Y648606D01*
X773990Y647103D01*
X769783Y644804D01*
X761057Y638714D01*
X748377Y624788D01*
X741141Y612177D01*
X734458Y600302D01*
X718462Y584118D01*
X705467Y581960D01*
G37*
G54D15*
X705467Y581960D02*
X710554Y575541D01*
X714941Y571154D01*
X717303Y574259D01*
X730612Y586780D01*
X736395Y593315D01*
X740831Y599790D01*
X745716Y608397D01*
X752319Y620877D01*
X757558Y628626D01*
X765424Y636000D01*
X770046Y639848D01*
X777495Y643037D01*
X813103Y643031D01*
X815548Y641987D01*
X817616Y640474D01*
X836818Y612126D01*
X845094Y618881D01*
X852464Y625147D01*
X833621Y647405D01*
X827964Y648542D01*
X778912Y648606D01*
X773990Y647103D01*
X769783Y644804D01*
X761057Y638714D01*
X748377Y624788D01*
X741141Y612177D01*
X734458Y600302D01*
X718462Y584118D01*
X705467Y581960D01*
G36*
X957130Y493526D02*
X955488Y493526D01*
X946225Y482863D01*
X939407Y477882D01*
X935038Y473075D01*
X939862Y467134D01*
X942766Y470936D01*
X950256Y479749D01*
X953545Y484013D01*
X963338Y491006D01*
X957130Y493526D01*
G37*
G54D15*
X957130Y493526D02*
X955488Y493526D01*
X946225Y482863D01*
X939407Y477882D01*
X935038Y473075D01*
X939862Y467134D01*
X942766Y470936D01*
X950256Y479749D01*
X953545Y484013D01*
X963338Y491006D01*
X957130Y493526D01*
G36*
X966481Y497651D02*
X985748Y497651D01*
X985748Y483360D01*
X985549Y483161D01*
X977268Y488813D01*
X968431Y493232D01*
X966481Y497651D01*
G37*
G54D15*
X966481Y497651D02*
X985748Y497651D01*
X985748Y483360D01*
X985549Y483161D01*
X977268Y488813D01*
X968431Y493232D01*
X966481Y497651D01*
G36*
X963338Y456081D02*
X963338Y459954D01*
X963376Y459992D01*
X982979Y463356D01*
X986121Y464278D01*
X992833Y464278D01*
X995613Y465014D01*
X999373Y467232D01*
X1002844Y471445D01*
X1002844Y463026D01*
X998294Y458476D01*
X991299Y458476D01*
X989302Y456478D01*
X988674Y456478D01*
X988380Y448110D01*
X969045Y451896D01*
X963338Y456081D01*
G37*
G54D15*
X963338Y456081D02*
X963338Y459954D01*
X963376Y459992D01*
X982979Y463356D01*
X986121Y464278D01*
X992833Y464278D01*
X995613Y465014D01*
X999373Y467232D01*
X1002844Y471445D01*
X1002844Y463026D01*
X998294Y458476D01*
X991299Y458476D01*
X989302Y456478D01*
X988674Y456478D01*
X988380Y448110D01*
X969045Y451896D01*
X963338Y456081D01*
G36*
X785841Y484255D02*
X785841Y483101D01*
X789420Y479522D01*
X791405Y480915D01*
X800020Y487659D01*
X808077Y495677D01*
X808077Y502958D01*
X807167Y503868D01*
X807167Y503754D01*
X797838Y494425D01*
X788737Y490330D01*
X785841Y484255D01*
G37*
G54D15*
X785841Y484255D02*
X785841Y483101D01*
X789420Y479522D01*
X791405Y480915D01*
X800020Y487659D01*
X808077Y495677D01*
X808077Y502958D01*
X807167Y503868D01*
X807167Y503754D01*
X797838Y494425D01*
X788737Y490330D01*
X785841Y484255D01*
G36*
X930619Y467160D02*
X928332Y456763D01*
X925101Y450539D01*
X930754Y450269D01*
X934253Y446770D01*
X938099Y446770D01*
X940740Y440351D01*
X938928Y454501D01*
X938934Y463419D01*
X939862Y467134D01*
X930619Y467160D01*
G37*
G54D15*
X930619Y467160D02*
X928332Y456763D01*
X925101Y450539D01*
X930754Y450269D01*
X934253Y446770D01*
X938099Y446770D01*
X940740Y440351D01*
X938928Y454501D01*
X938934Y463419D01*
X939862Y467134D01*
X930619Y467160D01*
G36*
X780840Y423447D02*
X780840Y406610D01*
X784224Y403226D01*
X784224Y404434D01*
X788014Y408224D01*
X788014Y428010D01*
X787400Y428624D01*
X780840Y423447D01*
G37*
G54D15*
X780840Y423447D02*
X780840Y406610D01*
X784224Y403226D01*
X784224Y404434D01*
X788014Y408224D01*
X788014Y428010D01*
X787400Y428624D01*
X780840Y423447D01*
G36*
X728952Y470766D02*
X727202Y477829D01*
X736164Y483141D01*
X747440Y493093D01*
X751470Y500601D01*
X757919Y523810D01*
X761128Y523810D01*
X763975Y520963D01*
X765583Y519139D01*
X757453Y504762D01*
X750394Y491076D01*
X739982Y478215D01*
X736519Y469738D01*
X728952Y470766D01*
G37*
G54D15*
X728952Y470766D02*
X727202Y477829D01*
X736164Y483141D01*
X747440Y493093D01*
X751470Y500601D01*
X757919Y523810D01*
X761128Y523810D01*
X763975Y520963D01*
X765583Y519139D01*
X757453Y504762D01*
X750394Y491076D01*
X739982Y478215D01*
X736519Y469738D01*
X728952Y470766D01*
G36*
X759044Y469852D02*
X767349Y441638D01*
X782708Y416496D01*
X782708Y432196D01*
X785438Y434926D01*
X781456Y434926D01*
X777341Y438542D01*
X773455Y442948D01*
X769566Y449616D01*
X767645Y457304D01*
X767804Y471601D01*
X763877Y475528D01*
X759044Y469852D01*
G37*
G54D15*
X759044Y469852D02*
X767349Y441638D01*
X782708Y416496D01*
X782708Y432196D01*
X785438Y434926D01*
X781456Y434926D01*
X777341Y438542D01*
X773455Y442948D01*
X769566Y449616D01*
X767645Y457304D01*
X767804Y471601D01*
X763877Y475528D01*
X759044Y469852D01*
G36*
X644524Y556404D02*
X661888Y572014D01*
X662629Y572014D01*
X668627Y566016D01*
X667610Y558901D01*
X663177Y548990D01*
X661850Y539753D01*
X660523Y536519D01*
X651763Y536519D01*
X648009Y540273D01*
X638112Y553811D01*
X644524Y556404D01*
G37*
G54D15*
X644524Y556404D02*
X661888Y572014D01*
X662629Y572014D01*
X668627Y566016D01*
X667610Y558901D01*
X663177Y548990D01*
X661850Y539753D01*
X660523Y536519D01*
X651763Y536519D01*
X648009Y540273D01*
X638112Y553811D01*
X644524Y556404D01*
G36*
X672003Y619572D02*
X679528Y624297D01*
X687139Y633570D01*
X691514Y641882D01*
X697438Y657409D01*
X697577Y662707D01*
X704374Y658198D01*
X706796Y657996D01*
X700802Y650116D01*
X690781Y634308D01*
X679400Y618409D01*
X679348Y618409D01*
X673499Y612560D01*
X672003Y619572D01*
G37*
G54D15*
X672003Y619572D02*
X679528Y624297D01*
X687139Y633570D01*
X691514Y641882D01*
X697438Y657409D01*
X697577Y662707D01*
X704374Y658198D01*
X706796Y657996D01*
X700802Y650116D01*
X690781Y634308D01*
X679400Y618409D01*
X679348Y618409D01*
X673499Y612560D01*
X672003Y619572D01*
G36*
X907966Y847705D02*
X916231Y845313D01*
X922466Y845648D01*
X926444Y846268D01*
X931280Y849058D01*
X934461Y852056D01*
X937970Y857480D01*
X939172Y860111D01*
X939172Y924382D01*
X939249Y924460D01*
X948919Y924460D01*
X949033Y924573D01*
X949034Y865816D01*
X950705Y859900D01*
X954180Y853785D01*
X957730Y849641D01*
X960857Y847951D01*
X967215Y846530D01*
X971985Y847007D01*
X976861Y847918D01*
X981466Y850578D01*
X991204Y856918D01*
X1003543Y867759D01*
X1017766Y884118D01*
X1024488Y886945D01*
X1028264Y884118D01*
X1036541Y885366D01*
X1036541Y838881D01*
X1037867Y833896D01*
X1039606Y828308D01*
X1042698Y821611D01*
X1047537Y817253D01*
X1053276Y815631D01*
X1064074Y815196D01*
X1127704Y815242D01*
X1132315Y814272D01*
X1136738Y812454D01*
X1131361Y784467D01*
X1130326Y783432D01*
X1117283Y783432D01*
X1115632Y781781D01*
X1110248Y784161D01*
X1096084Y784158D01*
X1093126Y783420D01*
X1082302Y778129D01*
X1053028Y778129D01*
X1049327Y774428D01*
X1049327Y729879D01*
X1054038Y725168D01*
X1067429Y725168D01*
X1067631Y725370D01*
X1067631Y724932D01*
X1087765Y705281D01*
X1095270Y703230D01*
X1089851Y698829D01*
X1094077Y694604D01*
X1086936Y694604D01*
X1084689Y696850D01*
X1081627Y702712D01*
X1074716Y709624D01*
X1071892Y710778D01*
X1054957Y710778D01*
X1045957Y719571D01*
X1043064Y725052D01*
X1005325Y819083D01*
X914793Y819083D01*
X913018Y820858D01*
X907966Y847705D01*
G37*
G54D15*
X907966Y847705D02*
X916231Y845313D01*
X922466Y845648D01*
X926444Y846268D01*
X931280Y849058D01*
X934461Y852056D01*
X937970Y857480D01*
X939172Y860111D01*
X939172Y924382D01*
X939249Y924460D01*
X948919Y924460D01*
X949033Y924573D01*
X949034Y865816D01*
X950705Y859900D01*
X954180Y853785D01*
X957730Y849641D01*
X960857Y847951D01*
X967215Y846530D01*
X971985Y847007D01*
X976861Y847918D01*
X981466Y850578D01*
X991204Y856918D01*
X1003543Y867759D01*
X1017766Y884118D01*
X1024488Y886945D01*
X1028264Y884118D01*
X1036541Y885366D01*
X1036541Y838881D01*
X1037867Y833896D01*
X1039606Y828308D01*
X1042698Y821611D01*
X1047537Y817253D01*
X1053276Y815631D01*
X1064074Y815196D01*
X1127704Y815242D01*
X1132315Y814272D01*
X1136738Y812454D01*
X1131361Y784467D01*
X1130326Y783432D01*
X1117283Y783432D01*
X1115632Y781781D01*
X1110248Y784161D01*
X1096084Y784158D01*
X1093126Y783420D01*
X1082302Y778129D01*
X1053028Y778129D01*
X1049327Y774428D01*
X1049327Y729879D01*
X1054038Y725168D01*
X1067429Y725168D01*
X1067631Y725370D01*
X1067631Y724932D01*
X1087765Y705281D01*
X1095270Y703230D01*
X1089851Y698829D01*
X1094077Y694604D01*
X1086936Y694604D01*
X1084689Y696850D01*
X1081627Y702712D01*
X1074716Y709624D01*
X1071892Y710778D01*
X1054957Y710778D01*
X1045957Y719571D01*
X1043064Y725052D01*
X1005325Y819083D01*
X914793Y819083D01*
X913018Y820858D01*
X907966Y847705D01*
X1068388Y747712D02*
G54D44*
D03*
X1068388Y782637D02*
G54D35*
D03*
X1122363Y731837D02*
G54D45*
D03*
X1122363Y696912D02*
G54D46*
D03*
X1122360Y668337D02*
G54D47*
D03*
X1150938Y701675D02*
G54D48*
D03*
X1152525Y665162D02*
G54D46*
D03*
X1041400Y457200D02*
G54D48*
D03*
X1041400Y422275D02*
G54D48*
D03*
X904448Y386965D02*
G54D44*
D03*
X928260Y406015D02*
G54D49*
D03*
X963184Y404428D02*
G54D50*
D03*
X722312Y388937D02*
G54D51*
D03*
X750887Y388937D02*
G54D51*
D03*
X722312Y412749D02*
G54D52*
D03*
X754062Y412749D02*
G54D53*
D03*
G54D33*
X1122363Y693737D02*
X1122363Y668337D01*
G54D23*
X1150938Y704850D02*
X1150938Y751464D01*
X1154402Y754928D01*
G54D43*
X1152814Y629516D02*
X1152814Y610466D01*
X1149640Y607291D01*
X942974Y946150D02*
G54D54*
D03*
G36*
X964050Y871672D02*
X993176Y940332D01*
X999911Y943254D01*
X1009130Y945910D01*
X1016450Y946824D01*
X1023893Y947249D01*
X1029729Y945475D01*
X1033167Y943761D01*
X1035870Y941557D01*
X1051420Y918580D01*
X1063632Y900138D01*
X1073289Y890474D01*
X1081763Y884657D01*
X1090861Y879811D01*
X1101399Y875705D01*
X1115167Y872811D01*
X1130653Y872811D01*
X1131966Y871497D01*
X1131966Y849145D01*
X1120478Y837656D01*
X1066912Y837656D01*
X1065502Y839066D01*
X1057748Y839066D01*
X1058435Y834705D01*
X1056138Y836057D01*
X1054276Y838932D01*
X1052922Y843967D01*
X1052778Y848707D01*
X1052737Y873383D01*
X1051428Y893327D01*
X1046604Y899393D01*
X1041460Y903837D01*
X1035161Y907072D01*
X1029243Y907632D01*
X1023619Y906997D01*
X1019668Y905420D01*
X1015997Y903871D01*
X1011863Y901393D01*
X977793Y863728D01*
X964050Y871672D01*
G37*
G54D15*
X964050Y871672D02*
X993176Y940332D01*
X999911Y943254D01*
X1009130Y945910D01*
X1016450Y946824D01*
X1023893Y947249D01*
X1029729Y945475D01*
X1033167Y943761D01*
X1035870Y941557D01*
X1051420Y918580D01*
X1063632Y900138D01*
X1073289Y890474D01*
X1081763Y884657D01*
X1090861Y879811D01*
X1101399Y875705D01*
X1115167Y872811D01*
X1130653Y872811D01*
X1131966Y871497D01*
X1131966Y849145D01*
X1120478Y837656D01*
X1066912Y837656D01*
X1065502Y839066D01*
X1057748Y839066D01*
X1058435Y834705D01*
X1056138Y836057D01*
X1054276Y838932D01*
X1052922Y843967D01*
X1052778Y848707D01*
X1052737Y873383D01*
X1051428Y893327D01*
X1046604Y899393D01*
X1041460Y903837D01*
X1035161Y907072D01*
X1029243Y907632D01*
X1023619Y906997D01*
X1019668Y905420D01*
X1015997Y903871D01*
X1011863Y901393D01*
X977793Y863728D01*
X964050Y871672D01*
G36*
X1074761Y749482D02*
X1076353Y748289D01*
X1092018Y735530D01*
X1096895Y732882D01*
X1091441Y730255D01*
X1089172Y727986D01*
X1087422Y726978D01*
X1085349Y730700D01*
X1074124Y744785D01*
X1074761Y749482D01*
G37*
G54D15*
X1074761Y749482D02*
X1076353Y748289D01*
X1092018Y735530D01*
X1096895Y732882D01*
X1091441Y730255D01*
X1089172Y727986D01*
X1087422Y726978D01*
X1085349Y730700D01*
X1074124Y744785D01*
X1074761Y749482D01*
G36*
X1096170Y718426D02*
X1100207Y718426D01*
X1106936Y711698D01*
X1111739Y706133D01*
X1117765Y698046D01*
X1122363Y696912D01*
X1122363Y699691D01*
X1119447Y699819D01*
X1116133Y702893D01*
X1112460Y709594D01*
X1106224Y720376D01*
X1102266Y728062D01*
X1096170Y718426D01*
G37*
G54D15*
X1096170Y718426D02*
X1100207Y718426D01*
X1106936Y711698D01*
X1111739Y706133D01*
X1117765Y698046D01*
X1122363Y696912D01*
X1122363Y699691D01*
X1119447Y699819D01*
X1116133Y702893D01*
X1112460Y709594D01*
X1106224Y720376D01*
X1102266Y728062D01*
X1096170Y718426D01*
G36*
X1103830Y753416D02*
X1107334Y752455D01*
X1109156Y751282D01*
X1111845Y748150D01*
X1114958Y742878D01*
X1116526Y739771D01*
X1117104Y736994D01*
X1127280Y736775D01*
X1125426Y738873D01*
X1106211Y763716D01*
X1103830Y753416D01*
G37*
G54D15*
X1103830Y753416D02*
X1107334Y752455D01*
X1109156Y751282D01*
X1111845Y748150D01*
X1114958Y742878D01*
X1116526Y739771D01*
X1117104Y736994D01*
X1127280Y736775D01*
X1125426Y738873D01*
X1106211Y763716D01*
X1103830Y753416D01*
G36*
X733011Y434664D02*
X750919Y418810D01*
X756780Y418810D01*
X757324Y419352D01*
X746588Y428347D01*
X739633Y438146D01*
X736046Y443307D01*
X733011Y434664D01*
G37*
G54D15*
X733011Y434664D02*
X750919Y418810D01*
X756780Y418810D01*
X757324Y419352D01*
X746588Y428347D01*
X739633Y438146D01*
X736046Y443307D01*
X733011Y434664D01*
G36*
X750569Y406418D02*
X750569Y399896D01*
X746066Y395393D01*
X757143Y395393D01*
X757246Y395497D01*
X757246Y407712D01*
X757195Y407764D01*
X750569Y406418D01*
G37*
G54D15*
X750569Y406418D02*
X750569Y399896D01*
X746066Y395393D01*
X757143Y395393D01*
X757246Y395497D01*
X757246Y407712D01*
X757195Y407764D01*
X750569Y406418D01*
G36*
X716003Y406608D02*
X716003Y396457D01*
X718432Y394029D01*
X725796Y393710D01*
X727986Y392954D01*
X720899Y407086D01*
X716003Y406608D01*
G37*
G54D15*
X716003Y406608D02*
X716003Y396457D01*
X718432Y394029D01*
X725796Y393710D01*
X727986Y392954D01*
X720899Y407086D01*
X716003Y406608D01*
G36*
X1035346Y459143D02*
X1035346Y472360D01*
X1038514Y475528D01*
X1046431Y475528D01*
X1046632Y475328D01*
X1046632Y457480D01*
X1045932Y456780D01*
X1035346Y459143D01*
G37*
G54D15*
X1035346Y459143D02*
X1035346Y472360D01*
X1038514Y475528D01*
X1046431Y475528D01*
X1046632Y475328D01*
X1046632Y457480D01*
X1045932Y456780D01*
X1035346Y459143D01*
G36*
X969919Y421063D02*
X969919Y401448D01*
X968432Y399960D01*
X968432Y402603D01*
X989993Y423049D01*
X969919Y421063D01*
G37*
G54D15*
X969919Y421063D02*
X969919Y401448D01*
X968432Y399960D01*
X968432Y402603D01*
X989993Y423049D01*
X969919Y421063D01*
G36*
X643800Y426621D02*
X647782Y426621D01*
X653129Y421274D01*
X656806Y416854D01*
X658937Y414205D01*
X661864Y411923D01*
X665540Y410368D01*
X670477Y408990D01*
X676592Y407894D01*
X685834Y407596D01*
X691853Y409102D01*
X695906Y411852D01*
X702556Y417776D01*
X705839Y422254D01*
X708763Y428015D01*
X710689Y435422D01*
X711514Y443585D01*
X713210Y449751D01*
X716128Y455461D01*
X726849Y462685D01*
X726849Y463595D01*
X720783Y472844D01*
X718381Y465519D01*
X715671Y459601D01*
X712059Y452446D01*
X709643Y446121D01*
X707743Y437104D01*
X706263Y433020D01*
X704141Y428454D01*
X700284Y422800D01*
X694718Y418579D01*
X690555Y416454D01*
X686751Y415751D01*
X679297Y415824D01*
X671320Y417093D01*
X666208Y421092D01*
X663405Y425049D01*
X661700Y430654D01*
X643800Y426621D01*
G37*
G54D15*
X643800Y426621D02*
X647782Y426621D01*
X653129Y421274D01*
X656806Y416854D01*
X658937Y414205D01*
X661864Y411923D01*
X665540Y410368D01*
X670477Y408990D01*
X676592Y407894D01*
X685834Y407596D01*
X691853Y409102D01*
X695906Y411852D01*
X702556Y417776D01*
X705839Y422254D01*
X708763Y428015D01*
X710689Y435422D01*
X711514Y443585D01*
X713210Y449751D01*
X716128Y455461D01*
X726849Y462685D01*
X726849Y463595D01*
X720783Y472844D01*
X718381Y465519D01*
X715671Y459601D01*
X712059Y452446D01*
X709643Y446121D01*
X707743Y437104D01*
X706263Y433020D01*
X704141Y428454D01*
X700284Y422800D01*
X694718Y418579D01*
X690555Y416454D01*
X686751Y415751D01*
X679297Y415824D01*
X671320Y417093D01*
X666208Y421092D01*
X663405Y425049D01*
X661700Y430654D01*
X643800Y426621D01*
G36*
X1058134Y692150D02*
X1058134Y687941D01*
X1059292Y680096D01*
X1065096Y673495D01*
X1071332Y668295D01*
X1078750Y663345D01*
X1088396Y657679D01*
X1093512Y654688D01*
X1114083Y636172D01*
X1117002Y630766D01*
X1117019Y605911D01*
X1124240Y607291D01*
X1124240Y608492D01*
X1129812Y614065D01*
X1129812Y632814D01*
X1131789Y636911D01*
X1135087Y641245D01*
X1143668Y649736D01*
X1157764Y660766D01*
X1152525Y665162D01*
X1148450Y659997D01*
X1145200Y656195D01*
X1140835Y652790D01*
X1134700Y648418D01*
X1129451Y646273D01*
X1118841Y645807D01*
X1113843Y646916D01*
X1109923Y650015D01*
X1104217Y658040D01*
X1101878Y665797D01*
X1058134Y692150D01*
G37*
G54D15*
X1058134Y692150D02*
X1058134Y687941D01*
X1059292Y680096D01*
X1065096Y673495D01*
X1071332Y668295D01*
X1078750Y663345D01*
X1088396Y657679D01*
X1093512Y654688D01*
X1114083Y636172D01*
X1117002Y630766D01*
X1117019Y605911D01*
X1124240Y607291D01*
X1124240Y608492D01*
X1129812Y614065D01*
X1129812Y632814D01*
X1131789Y636911D01*
X1135087Y641245D01*
X1143668Y649736D01*
X1157764Y660766D01*
X1152525Y665162D01*
X1148450Y659997D01*
X1145200Y656195D01*
X1140835Y652790D01*
X1134700Y648418D01*
X1129451Y646273D01*
X1118841Y645807D01*
X1113843Y646916D01*
X1109923Y650015D01*
X1104217Y658040D01*
X1101878Y665797D01*
X1058134Y692150D01*
G36*
X1151812Y759627D02*
X1160651Y781213D01*
X1160651Y866272D01*
X1160146Y868977D01*
X1157523Y872719D01*
X1154726Y876622D01*
X1148984Y881154D01*
X1146427Y882984D01*
X1142890Y884692D01*
X1139246Y885596D01*
X1115621Y885418D01*
X1110215Y886482D01*
X1101474Y888817D01*
X1095543Y891631D01*
X1090408Y894764D01*
X1086620Y897179D01*
X1082585Y900453D01*
X1079350Y903414D01*
X1075320Y908396D01*
X1071670Y913338D01*
X1066290Y922201D01*
X1056731Y941411D01*
X1059320Y944527D01*
X1059911Y945118D01*
X1059911Y943857D01*
X1065813Y940414D01*
X1067264Y930760D01*
X1069032Y923826D01*
X1076525Y912073D01*
X1081366Y906994D01*
X1088590Y899708D01*
X1094375Y896169D01*
X1102651Y891864D01*
X1110412Y889452D01*
X1117034Y888490D01*
X1156813Y888530D01*
X1159864Y887715D01*
X1162356Y885547D01*
X1164318Y880893D01*
X1165374Y876041D01*
X1165198Y767739D01*
X1162294Y756697D01*
X1154402Y754928D01*
X1151812Y759627D01*
G37*
G54D15*
X1151812Y759627D02*
X1160651Y781213D01*
X1160651Y866272D01*
X1160146Y868977D01*
X1157523Y872719D01*
X1154726Y876622D01*
X1148984Y881154D01*
X1146427Y882984D01*
X1142890Y884692D01*
X1139246Y885596D01*
X1115621Y885418D01*
X1110215Y886482D01*
X1101474Y888817D01*
X1095543Y891631D01*
X1090408Y894764D01*
X1086620Y897179D01*
X1082585Y900453D01*
X1079350Y903414D01*
X1075320Y908396D01*
X1071670Y913338D01*
X1066290Y922201D01*
X1056731Y941411D01*
X1059320Y944527D01*
X1059911Y945118D01*
X1059911Y943857D01*
X1065813Y940414D01*
X1067264Y930760D01*
X1069032Y923826D01*
X1076525Y912073D01*
X1081366Y906994D01*
X1088590Y899708D01*
X1094375Y896169D01*
X1102651Y891864D01*
X1110412Y889452D01*
X1117034Y888490D01*
X1156813Y888530D01*
X1159864Y887715D01*
X1162356Y885547D01*
X1164318Y880893D01*
X1165374Y876041D01*
X1165198Y767739D01*
X1162294Y756697D01*
X1154402Y754928D01*
X1151812Y759627D01*
G36*
X1062038Y468312D02*
X1061878Y419135D01*
X1017588Y419100D01*
X1013333Y417832D01*
X1009159Y415820D01*
X1005782Y413012D01*
X995633Y401298D01*
X985913Y391605D01*
X981389Y387949D01*
X976312Y385762D01*
X970960Y383356D01*
X926582Y383433D01*
X919162Y388938D01*
X889000Y388938D01*
X871538Y384175D01*
X871538Y381000D01*
X972682Y380724D01*
X977965Y381938D01*
X982420Y384314D01*
X988029Y388318D01*
X1004819Y407745D01*
X1009453Y412147D01*
X1013182Y413720D01*
X1018724Y414967D01*
X1060260Y414998D01*
X1063866Y416726D01*
X1068388Y433388D01*
X1068780Y446361D01*
X1083301Y465357D01*
X1095252Y471946D01*
X1099219Y478786D01*
X1102014Y482111D01*
X1062038Y468312D01*
G37*
G54D15*
X1062038Y468312D02*
X1061878Y419135D01*
X1017588Y419100D01*
X1013333Y417832D01*
X1009159Y415820D01*
X1005782Y413012D01*
X995633Y401298D01*
X985913Y391605D01*
X981389Y387949D01*
X976312Y385762D01*
X970960Y383356D01*
X926582Y383433D01*
X919162Y388938D01*
X889000Y388938D01*
X871538Y384175D01*
X871538Y381000D01*
X972682Y380724D01*
X977965Y381938D01*
X982420Y384314D01*
X988029Y388318D01*
X1004819Y407745D01*
X1009453Y412147D01*
X1013182Y413720D01*
X1018724Y414967D01*
X1060260Y414998D01*
X1063866Y416726D01*
X1068388Y433388D01*
X1068780Y446361D01*
X1083301Y465357D01*
X1095252Y471946D01*
X1099219Y478786D01*
X1102014Y482111D01*
X1062038Y468312D01*
G54D55*
X874712Y382588D02*
X746125Y382588D01*
G36*
X500352Y521566D02*
X500352Y526029D01*
X500832Y529137D01*
X507324Y533400D01*
X513746Y540183D01*
X519132Y549242D01*
X527787Y567078D01*
X534315Y567078D01*
X538694Y562699D01*
X526065Y549571D01*
X518979Y538534D01*
X512485Y527580D01*
X507544Y517456D01*
X500352Y521566D01*
G37*
G54D15*
X500352Y521566D02*
X500352Y526029D01*
X500832Y529137D01*
X507324Y533400D01*
X513746Y540183D01*
X519132Y549242D01*
X527787Y567078D01*
X534315Y567078D01*
X538694Y562699D01*
X526065Y549571D01*
X518979Y538534D01*
X512485Y527580D01*
X507544Y517456D01*
X500352Y521566D01*
G36*
X613064Y566016D02*
X608166Y565932D01*
X604393Y573074D01*
X597257Y585306D01*
X586272Y595962D01*
X582469Y599819D01*
X576436Y603915D01*
X566030Y608615D01*
X556115Y612457D01*
X541356Y618588D01*
X544802Y626341D01*
X544062Y633276D01*
X571368Y665113D01*
X582536Y675467D01*
X593149Y682002D01*
X603684Y685033D01*
X616134Y685527D01*
X627887Y683307D01*
X647019Y677092D01*
X659780Y670423D01*
X654340Y666028D01*
X650522Y658272D01*
X637634Y665864D01*
X630637Y669715D01*
X617520Y673834D01*
X611285Y674406D01*
X603974Y673498D01*
X594872Y670470D01*
X587029Y666933D01*
X577436Y659426D01*
X568412Y649325D01*
X561535Y636593D01*
X563822Y618505D01*
X569204Y613123D01*
X579398Y605538D01*
X591351Y594743D01*
X613499Y573038D01*
X616040Y562517D01*
X613064Y566016D01*
G37*
G54D15*
X613064Y566016D02*
X608166Y565932D01*
X604393Y573074D01*
X597257Y585306D01*
X586272Y595962D01*
X582469Y599819D01*
X576436Y603915D01*
X566030Y608615D01*
X556115Y612457D01*
X541356Y618588D01*
X544802Y626341D01*
X544062Y633276D01*
X571368Y665113D01*
X582536Y675467D01*
X593149Y682002D01*
X603684Y685033D01*
X616134Y685527D01*
X627887Y683307D01*
X647019Y677092D01*
X659780Y670423D01*
X654340Y666028D01*
X650522Y658272D01*
X637634Y665864D01*
X630637Y669715D01*
X617520Y673834D01*
X611285Y674406D01*
X603974Y673498D01*
X594872Y670470D01*
X587029Y666933D01*
X577436Y659426D01*
X568412Y649325D01*
X561535Y636593D01*
X563822Y618505D01*
X569204Y613123D01*
X579398Y605538D01*
X591351Y594743D01*
X613499Y573038D01*
X616040Y562517D01*
X613064Y566016D01*
G54D41*
X414881Y691906D02*
X419644Y652218D01*
G36*
X574513Y769937D02*
X462754Y732179D01*
X462675Y637735D01*
X469906Y629234D01*
X473122Y623317D01*
X475621Y616761D01*
X477609Y608280D01*
X477559Y600906D01*
X476131Y591939D01*
X473431Y585802D01*
X470012Y580382D01*
X466386Y575590D01*
X461008Y570720D01*
X452021Y565076D01*
X441380Y560881D01*
X430507Y554470D01*
X426022Y551818D01*
X418593Y548609D01*
X411933Y547607D01*
X346075Y547688D01*
X342900Y544512D01*
X342900Y541338D01*
X354012Y530225D01*
X412346Y529985D01*
X426010Y535401D01*
X446601Y547106D01*
X456574Y553637D01*
X466604Y563409D01*
X476570Y574693D01*
X482375Y584985D01*
X485775Y593725D01*
X486817Y616506D01*
X483121Y628462D01*
X474662Y646112D01*
X474596Y710552D01*
X476961Y716038D01*
X480197Y719242D01*
X536547Y741430D01*
X576262Y741362D01*
X574513Y769937D01*
G37*
G54D15*
X574513Y769937D02*
X462754Y732179D01*
X462675Y637735D01*
X469906Y629234D01*
X473122Y623317D01*
X475621Y616761D01*
X477609Y608280D01*
X477559Y600906D01*
X476131Y591939D01*
X473431Y585802D01*
X470012Y580382D01*
X466386Y575590D01*
X461008Y570720D01*
X452021Y565076D01*
X441380Y560881D01*
X430507Y554470D01*
X426022Y551818D01*
X418593Y548609D01*
X411933Y547607D01*
X346075Y547688D01*
X342900Y544512D01*
X342900Y541338D01*
X354012Y530225D01*
X412346Y529985D01*
X426010Y535401D01*
X446601Y547106D01*
X456574Y553637D01*
X466604Y563409D01*
X476570Y574693D01*
X482375Y584985D01*
X485775Y593725D01*
X486817Y616506D01*
X483121Y628462D01*
X474662Y646112D01*
X474596Y710552D01*
X476961Y716038D01*
X480197Y719242D01*
X536547Y741430D01*
X576262Y741362D01*
X574513Y769937D01*
G36*
X536547Y741430D02*
X539192Y741430D01*
X541662Y735810D01*
X497712Y677187D01*
X500336Y677187D01*
X510162Y667362D01*
X592308Y733077D01*
X565150Y758825D01*
X536547Y741430D01*
G37*
G54D15*
X536547Y741430D02*
X539192Y741430D01*
X541662Y735810D01*
X497712Y677187D01*
X500336Y677187D01*
X510162Y667362D01*
X592308Y733077D01*
X565150Y758825D01*
X536547Y741430D01*
G36*
X494920Y573964D02*
X466123Y541441D01*
X464181Y537292D01*
X463418Y533923D01*
X463118Y529155D01*
X462778Y504837D01*
X464498Y500038D01*
X467296Y496719D01*
X470535Y489534D01*
X479633Y477457D01*
X488278Y461739D01*
X493849Y438381D01*
X500612Y439633D01*
X509536Y430709D01*
X509628Y446117D01*
X508877Y454959D01*
X505224Y469559D01*
X504265Y475681D01*
X504871Y479403D01*
X506959Y483529D01*
X509655Y486264D01*
X516362Y491806D01*
X526121Y500520D01*
X536321Y511322D01*
X526684Y521610D01*
X525564Y515381D01*
X522293Y507559D01*
X515043Y499686D01*
X508788Y494480D01*
X505776Y493253D01*
X502286Y492821D01*
X497935Y493152D01*
X493994Y494338D01*
X490345Y495851D01*
X485801Y500162D01*
X482447Y506679D01*
X480332Y524491D01*
X481083Y535446D01*
X484163Y543007D01*
X496132Y556716D01*
X506568Y565641D01*
X502200Y567009D01*
X506165Y570699D01*
X494920Y573964D01*
G37*
G54D15*
X494920Y573964D02*
X466123Y541441D01*
X464181Y537292D01*
X463418Y533923D01*
X463118Y529155D01*
X462778Y504837D01*
X464498Y500038D01*
X467296Y496719D01*
X470535Y489534D01*
X479633Y477457D01*
X488278Y461739D01*
X493849Y438381D01*
X500612Y439633D01*
X509536Y430709D01*
X509628Y446117D01*
X508877Y454959D01*
X505224Y469559D01*
X504265Y475681D01*
X504871Y479403D01*
X506959Y483529D01*
X509655Y486264D01*
X516362Y491806D01*
X526121Y500520D01*
X536321Y511322D01*
X526684Y521610D01*
X525564Y515381D01*
X522293Y507559D01*
X515043Y499686D01*
X508788Y494480D01*
X505776Y493253D01*
X502286Y492821D01*
X497935Y493152D01*
X493994Y494338D01*
X490345Y495851D01*
X485801Y500162D01*
X482447Y506679D01*
X480332Y524491D01*
X481083Y535446D01*
X484163Y543007D01*
X496132Y556716D01*
X506568Y565641D01*
X502200Y567009D01*
X506165Y570699D01*
X494920Y573964D01*
G54D55*
X714375Y384175D02*
X522288Y384175D01*
X514350Y392112D01*
G36*
X492125Y425450D02*
X495188Y414709D01*
X501708Y400677D01*
X510771Y384115D01*
X522288Y384175D01*
X517520Y395336D01*
X511149Y414847D01*
X507736Y432082D01*
X492125Y425450D01*
G37*
G54D55*
X492125Y425450D02*
X495188Y414709D01*
X501708Y400677D01*
X510771Y384115D01*
X522288Y384175D01*
X517520Y395336D01*
X511149Y414847D01*
X507736Y432082D01*
X492125Y425450D01*
G54D29*
X170406Y487118D02*
X195806Y536331D01*
G54D29*
X240256Y487118D02*
X270418Y536331D01*
G54D29*
X311694Y487118D02*
X345031Y536331D01*
X388937Y425450D02*
G54D54*
D03*
G54D29*
X170406Y391868D02*
X388694Y391868D01*
X390525Y393700D01*
G36*
X352425Y396875D02*
X355600Y396875D01*
X374650Y415925D01*
X400050Y415925D01*
X411162Y427038D01*
X411162Y392112D01*
X403225Y384175D01*
X369888Y384175D01*
X366712Y387350D01*
X352425Y396875D01*
G37*
G54D56*
X352425Y396875D02*
X355600Y396875D01*
X374650Y415925D01*
X400050Y415925D01*
X411162Y427038D01*
X411162Y392112D01*
X403225Y384175D01*
X369888Y384175D01*
X366712Y387350D01*
X352425Y396875D01*
X146676Y900113D02*
G54D57*
D03*
X146676Y768350D02*
G54D57*
D03*
G36*
X65192Y396538D02*
X61520Y396673D01*
X37682Y408186D01*
X28515Y415930D01*
X18310Y426922D01*
X13473Y438933D01*
X13386Y948080D01*
X15675Y965374D01*
X19470Y975703D01*
X25528Y983680D01*
X31981Y988510D01*
X39135Y991240D01*
X440606Y991503D01*
X478538Y937008D01*
X459451Y938758D01*
X454348Y941586D01*
X449244Y948965D01*
X426516Y979976D01*
X47418Y979976D01*
X42391Y977750D01*
X37682Y975048D01*
X34150Y971653D01*
X30699Y967542D01*
X27278Y959834D01*
X26503Y482524D01*
X31211Y456712D01*
X35874Y447158D01*
X48923Y436205D01*
X60872Y430660D01*
X71204Y427807D01*
X76728Y419073D01*
X65192Y396538D01*
G37*
G54D15*
X65192Y396538D02*
X61520Y396673D01*
X37682Y408186D01*
X28515Y415930D01*
X18310Y426922D01*
X13473Y438933D01*
X13386Y948080D01*
X15675Y965374D01*
X19470Y975703D01*
X25528Y983680D01*
X31981Y988510D01*
X39135Y991240D01*
X440606Y991503D01*
X478538Y937008D01*
X459451Y938758D01*
X454348Y941586D01*
X449244Y948965D01*
X426516Y979976D01*
X47418Y979976D01*
X42391Y977750D01*
X37682Y975048D01*
X34150Y971653D01*
X30699Y967542D01*
X27278Y959834D01*
X26503Y482524D01*
X31211Y456712D01*
X35874Y447158D01*
X48923Y436205D01*
X60872Y430660D01*
X71204Y427807D01*
X76728Y419073D01*
X65192Y396538D01*
G36*
X70727Y856460D02*
X71511Y882915D01*
X64331Y903742D01*
X64331Y908586D01*
X71900Y916155D01*
X127418Y916155D01*
X133333Y910239D01*
X133333Y896360D01*
X126394Y889420D01*
X99229Y889508D01*
X92220Y887228D01*
X87719Y881843D01*
X84926Y848976D01*
X82252Y852560D01*
X70727Y856460D01*
G37*
G54D15*
X70727Y856460D02*
X71511Y882915D01*
X64331Y903742D01*
X64331Y908586D01*
X71900Y916155D01*
X127418Y916155D01*
X133333Y910239D01*
X133333Y896360D01*
X126394Y889420D01*
X99229Y889508D01*
X92220Y887228D01*
X87719Y881843D01*
X84926Y848976D01*
X82252Y852560D01*
X70727Y856460D01*
G54D29*
X205331Y930031D02*
X251368Y842718D01*
G36*
X169554Y858268D02*
X197823Y900255D01*
X201773Y903619D01*
X205738Y904385D01*
X210818Y904037D01*
X211853Y903002D01*
X211853Y932854D01*
X208250Y939686D01*
X169837Y946261D01*
X169554Y858268D01*
G37*
G54D15*
X169554Y858268D02*
X197823Y900255D01*
X201773Y903619D01*
X205738Y904385D01*
X210818Y904037D01*
X211853Y903002D01*
X211853Y932854D01*
X208250Y939686D01*
X169837Y946261D01*
X169554Y858268D01*
G54D23*
X65088Y523875D02*
X65088Y711200D01*
X131762Y766762D01*
X158750Y736600D01*
X160338Y738188D01*
G36*
X58738Y533400D02*
X58738Y492125D01*
X61912Y488950D01*
X84138Y488950D01*
X87312Y501650D01*
X68262Y542925D01*
X58738Y533400D01*
G37*
G54D58*
X58738Y533400D02*
X58738Y492125D01*
X61912Y488950D01*
X84138Y488950D01*
X87312Y501650D01*
X68262Y542925D01*
X58738Y533400D01*
G36*
X123825Y768350D02*
X123825Y762000D01*
X65088Y703262D01*
X65088Y676275D01*
X69850Y671512D01*
X69850Y677862D01*
X69867Y687638D01*
X114300Y722312D01*
X131762Y722312D01*
X123825Y768350D01*
G37*
G54D15*
X123825Y768350D02*
X123825Y762000D01*
X65088Y703262D01*
X65088Y676275D01*
X69850Y671512D01*
X69850Y677862D01*
X69867Y687638D01*
X114300Y722312D01*
X131762Y722312D01*
X123825Y768350D01*
G54D29*
X170406Y601418D02*
X195806Y536331D01*
G36*
X114611Y542345D02*
X114611Y620533D01*
X116776Y628262D01*
X120288Y636396D01*
X124674Y642645D01*
X129330Y647414D01*
X137390Y653593D01*
X145532Y658345D01*
X155249Y661171D01*
X217497Y661171D01*
X219516Y659152D01*
X219516Y650934D01*
X214338Y645756D01*
X181902Y645756D01*
X173689Y645770D01*
X165170Y645170D01*
X159072Y643506D01*
X154343Y641677D01*
X149833Y639449D01*
X143389Y634254D01*
X137035Y627680D01*
X133130Y622192D01*
X129294Y611894D01*
X127766Y605180D01*
X132470Y533309D01*
X114611Y542345D01*
G37*
G54D15*
X114611Y542345D02*
X114611Y620533D01*
X116776Y628262D01*
X120288Y636396D01*
X124674Y642645D01*
X129330Y647414D01*
X137390Y653593D01*
X145532Y658345D01*
X155249Y661171D01*
X217497Y661171D01*
X219516Y659152D01*
X219516Y650934D01*
X214338Y645756D01*
X181902Y645756D01*
X173689Y645770D01*
X165170Y645170D01*
X159072Y643506D01*
X154343Y641677D01*
X149833Y639449D01*
X143389Y634254D01*
X137035Y627680D01*
X133130Y622192D01*
X129294Y611894D01*
X127766Y605180D01*
X132470Y533309D01*
X114611Y542345D01*
G36*
X242885Y716346D02*
X242885Y788309D01*
X244185Y792043D01*
X246492Y794116D01*
X249731Y795155D01*
X262400Y796595D01*
X268419Y798086D01*
X274010Y800618D01*
X280469Y805165D01*
X286860Y810975D01*
X296080Y824978D01*
X299290Y840371D01*
X299549Y860282D01*
X300701Y873223D01*
X302160Y879895D01*
X304493Y886247D01*
X308488Y893991D01*
X313300Y900643D01*
X319639Y906817D01*
X327531Y912059D01*
X335426Y917112D01*
X347919Y923945D01*
X359336Y929027D01*
X370901Y933095D01*
X383580Y936451D01*
X395916Y938812D01*
X444937Y940728D01*
X449544Y943345D01*
X450178Y948126D01*
X447625Y954059D01*
X467122Y940728D01*
X469852Y937998D01*
X469852Y922981D01*
X472253Y919167D01*
X463986Y918069D01*
X433473Y918089D01*
X377809Y917460D01*
X372012Y915561D01*
X360313Y909937D01*
X342354Y901290D01*
X333679Y896284D01*
X325602Y890702D01*
X318194Y884907D01*
X315892Y881818D01*
X312197Y875584D01*
X310035Y869964D01*
X309186Y864542D01*
X309320Y856805D01*
X308788Y830086D01*
X307637Y815891D01*
X303685Y808464D01*
X298678Y801444D01*
X290485Y793688D01*
X286467Y790472D01*
X282024Y787960D01*
X277089Y785126D01*
X272154Y783273D01*
X268968Y781868D01*
X266213Y779299D01*
X264497Y776183D01*
X264550Y722163D01*
X260762Y705363D01*
X251368Y710956D01*
X242885Y716346D01*
G37*
G54D15*
X242885Y716346D02*
X242885Y788309D01*
X244185Y792043D01*
X246492Y794116D01*
X249731Y795155D01*
X262400Y796595D01*
X268419Y798086D01*
X274010Y800618D01*
X280469Y805165D01*
X286860Y810975D01*
X296080Y824978D01*
X299290Y840371D01*
X299549Y860282D01*
X300701Y873223D01*
X302160Y879895D01*
X304493Y886247D01*
X308488Y893991D01*
X313300Y900643D01*
X319639Y906817D01*
X327531Y912059D01*
X335426Y917112D01*
X347919Y923945D01*
X359336Y929027D01*
X370901Y933095D01*
X383580Y936451D01*
X395916Y938812D01*
X444937Y940728D01*
X449544Y943345D01*
X450178Y948126D01*
X447625Y954059D01*
X467122Y940728D01*
X469852Y937998D01*
X469852Y922981D01*
X472253Y919167D01*
X463986Y918069D01*
X433473Y918089D01*
X377809Y917460D01*
X372012Y915561D01*
X360313Y909937D01*
X342354Y901290D01*
X333679Y896284D01*
X325602Y890702D01*
X318194Y884907D01*
X315892Y881818D01*
X312197Y875584D01*
X310035Y869964D01*
X309186Y864542D01*
X309320Y856805D01*
X308788Y830086D01*
X307637Y815891D01*
X303685Y808464D01*
X298678Y801444D01*
X290485Y793688D01*
X286467Y790472D01*
X282024Y787960D01*
X277089Y785126D01*
X272154Y783273D01*
X268968Y781868D01*
X266213Y779299D01*
X264497Y776183D01*
X264550Y722163D01*
X260762Y705363D01*
X251368Y710956D01*
X242885Y716346D01*
G36*
X341312Y838200D02*
X341312Y785812D01*
X341117Y783265D01*
X340248Y780717D01*
X338537Y778369D01*
X336457Y776632D01*
X331007Y773163D01*
X306095Y759240D01*
X302248Y756104D01*
X299117Y752489D01*
X297552Y748850D01*
X296862Y741362D01*
X296862Y709612D01*
X297250Y682527D01*
X293870Y670516D01*
X289529Y661252D01*
X281546Y649029D01*
X272407Y636187D01*
X265506Y629844D01*
X259297Y624494D01*
X247301Y616589D01*
X230107Y608920D01*
X221130Y605770D01*
X209596Y603830D01*
X189827Y603788D01*
X174572Y605605D01*
X172238Y603250D01*
X170406Y601418D01*
X170406Y599532D01*
X183925Y580940D01*
X188432Y588298D01*
X214575Y590996D01*
X227644Y593323D01*
X239279Y597081D01*
X252997Y603229D01*
X266714Y612177D01*
X277282Y621650D01*
X286109Y631069D01*
X293022Y639893D01*
X299984Y651376D01*
X309495Y673774D01*
X309562Y730250D01*
X310156Y734356D01*
X312290Y739152D01*
X317480Y744466D01*
X325032Y750058D01*
X336775Y756115D01*
X347416Y758578D01*
X353483Y759559D01*
X356700Y760394D01*
X359260Y761748D01*
X361980Y765101D01*
X363538Y771525D01*
X360988Y829635D01*
X360913Y842906D01*
X360362Y844550D01*
X341312Y838200D01*
G37*
G54D15*
X341312Y838200D02*
X341312Y785812D01*
X341117Y783265D01*
X340248Y780717D01*
X338537Y778369D01*
X336457Y776632D01*
X331007Y773163D01*
X306095Y759240D01*
X302248Y756104D01*
X299117Y752489D01*
X297552Y748850D01*
X296862Y741362D01*
X296862Y709612D01*
X297250Y682527D01*
X293870Y670516D01*
X289529Y661252D01*
X281546Y649029D01*
X272407Y636187D01*
X265506Y629844D01*
X259297Y624494D01*
X247301Y616589D01*
X230107Y608920D01*
X221130Y605770D01*
X209596Y603830D01*
X189827Y603788D01*
X174572Y605605D01*
X172238Y603250D01*
X170406Y601418D01*
X170406Y599532D01*
X183925Y580940D01*
X188432Y588298D01*
X214575Y590996D01*
X227644Y593323D01*
X239279Y597081D01*
X252997Y603229D01*
X266714Y612177D01*
X277282Y621650D01*
X286109Y631069D01*
X293022Y639893D01*
X299984Y651376D01*
X309495Y673774D01*
X309562Y730250D01*
X310156Y734356D01*
X312290Y739152D01*
X317480Y744466D01*
X325032Y750058D01*
X336775Y756115D01*
X347416Y758578D01*
X353483Y759559D01*
X356700Y760394D01*
X359260Y761748D01*
X361980Y765101D01*
X363538Y771525D01*
X360988Y829635D01*
X360913Y842906D01*
X360362Y844550D01*
X341312Y838200D01*
G36*
X263956Y542790D02*
X268654Y550215D01*
X285774Y572719D01*
X289898Y577070D01*
X294739Y581022D01*
X300574Y585532D01*
X307604Y589166D01*
X312880Y591050D01*
X317536Y592769D01*
X322400Y593453D01*
X356348Y594740D01*
X385582Y594751D01*
X394089Y594744D01*
X398803Y597897D01*
X401484Y602750D01*
X404961Y601420D01*
X405774Y599107D01*
X402761Y602490D01*
X387197Y610580D01*
X378446Y616595D01*
X371870Y622507D01*
X362754Y632365D01*
X354579Y641585D01*
X352395Y644635D01*
X348957Y650257D01*
X343885Y662121D01*
X341788Y675701D01*
X341411Y704437D01*
X360381Y711919D01*
X362002Y692748D01*
X361986Y665656D01*
X367140Y656044D01*
X369830Y650725D01*
X373744Y645344D01*
X390161Y627619D01*
X395988Y621345D01*
X403809Y616381D01*
X413182Y613385D01*
X435877Y612164D01*
X436500Y610000D01*
X433566Y594581D01*
X407482Y584008D01*
X398379Y581671D01*
X372322Y581994D01*
X352910Y582747D01*
X341282Y582306D01*
X330843Y580473D01*
X323706Y578424D01*
X315584Y573080D01*
X306479Y567784D01*
X295165Y558803D01*
X278807Y534128D01*
X263956Y542790D01*
G37*
G54D15*
X263956Y542790D02*
X268654Y550215D01*
X285774Y572719D01*
X289898Y577070D01*
X294739Y581022D01*
X300574Y585532D01*
X307604Y589166D01*
X312880Y591050D01*
X317536Y592769D01*
X322400Y593453D01*
X356348Y594740D01*
X385582Y594751D01*
X394089Y594744D01*
X398803Y597897D01*
X401484Y602750D01*
X404961Y601420D01*
X405774Y599107D01*
X402761Y602490D01*
X387197Y610580D01*
X378446Y616595D01*
X371870Y622507D01*
X362754Y632365D01*
X354579Y641585D01*
X352395Y644635D01*
X348957Y650257D01*
X343885Y662121D01*
X341788Y675701D01*
X341411Y704437D01*
X360381Y711919D01*
X362002Y692748D01*
X361986Y665656D01*
X367140Y656044D01*
X369830Y650725D01*
X373744Y645344D01*
X390161Y627619D01*
X395988Y621345D01*
X403809Y616381D01*
X413182Y613385D01*
X435877Y612164D01*
X436500Y610000D01*
X433566Y594581D01*
X407482Y584008D01*
X398379Y581671D01*
X372322Y581994D01*
X352910Y582747D01*
X341282Y582306D01*
X330843Y580473D01*
X323706Y578424D01*
X315584Y573080D01*
X306479Y567784D01*
X295165Y558803D01*
X278807Y534128D01*
X263956Y542790D01*
M02*
