%FSLAX34Y34*%
%MOMM*%
%LNOUTLINE*%
G71*
G01*
%ADD10C,0.000*%
%LPD*%
G54D10*
X0Y368300D02*
X1073150Y368300D01*
G54D10*
G75*
G01X1117600Y471488D02*
G03X1073150Y427038I0J-44450D01*
G01*
G54D10*
X1073150Y427038D02*
X1073150Y368300D01*
G54D10*
X1117600Y471488D02*
X1173162Y471488D01*
G54D10*
X1173162Y471488D02*
X1173162Y900112D01*
G54D10*
G75*
G01X1073150Y947812D02*
G03X1125646Y900128I50894J3291D01*
G01*
G54D10*
X1125646Y900128D02*
X1173162Y900112D01*
G54D10*
X1073150Y947812D02*
X1073150Y1000125D01*
X569912Y1000125D01*
X569912Y979488D01*
X528638Y979488D01*
X528638Y1000125D01*
X0Y1000125D01*
X0Y368300D01*
G54D10*
G75*
G01X404812Y425450D02*
G03X404812Y425450I-15875J0D01*
G01*
G54D10*
X127000Y938212D02*
X166688Y938212D01*
X166688Y917575D01*
X127000Y917575D01*
X127000Y938212D01*
G54D10*
X127000Y882650D02*
X166688Y882650D01*
X166688Y862012D01*
X127000Y862012D01*
X127000Y882650D01*
G54D10*
X127000Y806450D02*
X166688Y806450D01*
X166688Y785812D01*
X127000Y785812D01*
X127000Y806450D01*
G54D10*
X127000Y750888D02*
X166688Y750888D01*
X166688Y730250D01*
X127000Y730250D01*
X127000Y750888D01*
M02*
