%FSLAX34Y34*%
%MOMM*%
%LNSOLDERMASK_BOTTOM*%
G71*
G01*
%ADD10C,3.000*%
%ADD11C,2.600*%
%ADD12C,5.600*%
%ADD13C,4.800*%
%ADD14C,4.800*%
%ADD15R,1.800X1.900*%
%ADD16R,2.000X1.700*%
%ADD17R,1.500X1.600*%
%ADD18R,1.300X1.650*%
%ADD19R,1.100X2.100*%
%ADD20R,1.400X2.000*%
%ADD21R,1.700X2.000*%
%ADD22R,1.700X1.600*%
%ADD23R,1.600X1.500*%
%ADD24R,1.600X1.650*%
%ADD25R,1.550X1.900*%
%ADD26R,1.800X1.300*%
%ADD27R,1.200X1.600*%
%ADD28R,1.500X1.900*%
%ADD29R,2.000X1.900*%
%ADD30R,1.700X1.200*%
%ADD31R,2.000X1.300*%
%ADD32R,1.800X1.200*%
%ADD33R,1.500X1.500*%
%ADD34R,1.500X1.300*%
%ADD35R,1.500X1.700*%
%ADD36R,1.600X1.300*%
%ADD37R,1.100X1.800*%
%ADD38R,1.400X1.700*%
%ADD39R,1.700X1.800*%
%ADD40R,1.700X1.900*%
%ADD41R,1.200X1.900*%
%ADD42C,5.600*%
%ADD43R,5.600X9.800*%
%LPD*%
X894306Y618881D02*
G54D10*
D03*
X849602Y575541D02*
G54D11*
D03*
X945106Y618881D02*
G54D10*
D03*
X849602Y545378D02*
G54D11*
D03*
X798802Y545378D02*
G54D11*
D03*
X798802Y575541D02*
G54D11*
D03*
X763877Y526328D02*
G54D11*
D03*
X898814Y575541D02*
G54D11*
D03*
X928977Y575541D02*
G54D11*
D03*
X928977Y526328D02*
G54D11*
D03*
X900402Y526328D02*
G54D11*
D03*
X868652Y526328D02*
G54D11*
D03*
X963902Y551728D02*
G54D11*
D03*
X995652Y551728D02*
G54D11*
D03*
X959140Y521566D02*
G54D11*
D03*
X1038514Y524741D02*
G54D11*
D03*
X1009940Y519978D02*
G54D11*
D03*
X989302Y486641D02*
G54D11*
D03*
X989302Y456478D02*
G54D11*
D03*
X930564Y445366D02*
G54D11*
D03*
X1038514Y475528D02*
G54D11*
D03*
X843252Y505691D02*
G54D11*
D03*
X813090Y500928D02*
G54D11*
D03*
X813090Y472354D02*
G54D11*
D03*
X813090Y443778D02*
G54D11*
D03*
X843252Y456478D02*
G54D11*
D03*
X868652Y475528D02*
G54D11*
D03*
X868652Y446954D02*
G54D11*
D03*
X728952Y470766D02*
G54D11*
D03*
X728952Y440604D02*
G54D11*
D03*
X728952Y500928D02*
G54D11*
D03*
X728952Y470766D02*
G54D11*
D03*
X763877Y475528D02*
G54D11*
D03*
X684502Y442191D02*
G54D11*
D03*
X684502Y540616D02*
G54D11*
D03*
X1098840Y489816D02*
G54D11*
D03*
X1124240Y489816D02*
G54D11*
D03*
X1149640Y489816D02*
G54D11*
D03*
X1098840Y607291D02*
G54D11*
D03*
X1124240Y607291D02*
G54D11*
D03*
X1149640Y607291D02*
G54D11*
D03*
X995652Y551728D02*
G54D11*
D03*
X1024227Y551728D02*
G54D11*
D03*
X1152814Y629516D02*
G54D11*
D03*
X1094077Y664441D02*
G54D11*
D03*
X1094077Y694604D02*
G54D11*
D03*
X1094077Y724766D02*
G54D11*
D03*
X1154402Y754928D02*
G54D11*
D03*
X1098840Y759691D02*
G54D11*
D03*
X1028990Y934316D02*
G54D11*
D03*
X1028990Y886691D02*
G54D11*
D03*
X1009940Y839066D02*
G54D11*
D03*
X1065502Y839066D02*
G54D11*
D03*
X970252Y866054D02*
G54D11*
D03*
X919452Y866054D02*
G54D11*
D03*
X706727Y945428D02*
G54D11*
D03*
X736890Y945428D02*
G54D11*
D03*
X767052Y945428D02*
G54D11*
D03*
X840077Y866054D02*
G54D11*
D03*
X840077Y915266D02*
G54D11*
D03*
X1098840Y859704D02*
G54D11*
D03*
X654340Y666028D02*
G54D11*
D03*
X621002Y626341D02*
G54D11*
D03*
X544802Y626341D02*
G54D11*
D03*
X668627Y615228D02*
G54D11*
D03*
X668627Y566016D02*
G54D11*
D03*
X708314Y575541D02*
G54D11*
D03*
X708314Y624754D02*
G54D11*
D03*
X613064Y566016D02*
G54D11*
D03*
X613064Y516804D02*
G54D11*
D03*
X654340Y535854D02*
G54D11*
D03*
X574964Y581891D02*
G54D11*
D03*
X574964Y510454D02*
G54D11*
D03*
X535277Y570778D02*
G54D11*
D03*
X535277Y519978D02*
G54D11*
D03*
X500352Y521566D02*
G54D11*
D03*
X500352Y570778D02*
G54D11*
D03*
X503527Y621578D02*
G54D11*
D03*
X499018Y431556D02*
G54D10*
D03*
X556168Y431556D02*
G54D10*
D03*
X610144Y431556D02*
G54D10*
D03*
X654340Y434254D02*
G54D11*
D03*
X503527Y621578D02*
G54D11*
D03*
X503527Y670791D02*
G54D11*
D03*
X654340Y666028D02*
G54D11*
D03*
X703552Y666028D02*
G54D11*
D03*
X585788Y850900D02*
G54D12*
D03*
X585788Y749300D02*
G54D12*
D03*
X1130301Y854075D02*
G54D13*
D03*
X1130301Y793750D02*
G54D13*
D03*
X71727Y983528D02*
G54D11*
D03*
X71727Y907328D02*
G54D11*
D03*
X76490Y851766D02*
G54D11*
D03*
X27277Y851766D02*
G54D11*
D03*
X251368Y842718D02*
G54D10*
D03*
X349794Y842718D02*
G54D10*
D03*
X251368Y710956D02*
G54D10*
D03*
X349794Y710956D02*
G54D10*
D03*
X205331Y930031D02*
G54D10*
D03*
X470444Y930031D02*
G54D10*
D03*
X414881Y768106D02*
G54D10*
D03*
X414881Y691906D02*
G54D10*
D03*
X419644Y652218D02*
G54D10*
D03*
X219618Y652218D02*
G54D10*
D03*
X170406Y601418D02*
G54D10*
D03*
X435518Y601418D02*
G54D10*
D03*
X121194Y536331D02*
G54D10*
D03*
X195806Y536331D02*
G54D10*
D03*
X195806Y536331D02*
G54D10*
D03*
X270418Y536331D02*
G54D10*
D03*
X270418Y536331D02*
G54D10*
D03*
X345031Y536331D02*
G54D10*
D03*
X170406Y487118D02*
G54D10*
D03*
X240256Y487118D02*
G54D10*
D03*
X311694Y487118D02*
G54D10*
D03*
X170406Y391868D02*
G54D10*
D03*
X240256Y391868D02*
G54D10*
D03*
X311694Y391868D02*
G54D10*
D03*
X74614Y487362D02*
G54D14*
D03*
X74614Y411162D02*
G54D14*
D03*
X994318Y618881D02*
G54D10*
D03*
X845094Y618881D02*
G54D10*
D03*
X795881Y618881D02*
G54D10*
D03*
X894306Y793506D02*
G54D10*
D03*
X945106Y793506D02*
G54D10*
D03*
X994318Y793506D02*
G54D10*
D03*
X845094Y793506D02*
G54D10*
D03*
X795881Y793506D02*
G54D10*
D03*
X903663Y550588D02*
G54D15*
D03*
X930651Y550588D02*
G54D16*
D03*
X825244Y581341D02*
G54D15*
D03*
X825876Y553763D02*
G54D15*
D03*
X819149Y403226D02*
G54D17*
D03*
X877887Y417514D02*
G54D18*
D03*
X842962Y417514D02*
G54D18*
D03*
X900402Y498170D02*
G54D19*
D03*
X935038Y498475D02*
G54D18*
D03*
X786188Y514076D02*
G54D20*
D03*
X785841Y484255D02*
G54D21*
D03*
X935038Y473075D02*
G54D18*
D03*
X900402Y472770D02*
G54D19*
D03*
X787400Y458787D02*
G54D22*
D03*
X904448Y421890D02*
G54D23*
D03*
X952500Y428625D02*
G54D24*
D03*
X1066525Y503706D02*
G54D24*
D03*
X1066526Y473543D02*
G54D25*
D03*
X963451Y493281D02*
G54D26*
D03*
X963338Y456081D02*
G54D26*
D03*
X784793Y403744D02*
G54D27*
D03*
X1063626Y717550D02*
G54D28*
D03*
X1063626Y688975D02*
G54D28*
D03*
X1122363Y638175D02*
G54D28*
D03*
X977899Y427038D02*
G54D29*
D03*
X642936Y591329D02*
G54D30*
D03*
X644524Y556404D02*
G54D31*
D03*
X787400Y428624D02*
G54D21*
D03*
X1068388Y747712D02*
G54D32*
D03*
X1068388Y782637D02*
G54D26*
D03*
X1122363Y731837D02*
G54D33*
D03*
X1122363Y696912D02*
G54D34*
D03*
X1122360Y668337D02*
G54D35*
D03*
X1150938Y701675D02*
G54D36*
D03*
X1152525Y665162D02*
G54D34*
D03*
X1041400Y457200D02*
G54D36*
D03*
X1041400Y422275D02*
G54D36*
D03*
X904448Y386965D02*
G54D32*
D03*
X928260Y406015D02*
G54D37*
D03*
X963184Y404428D02*
G54D38*
D03*
X722312Y388937D02*
G54D39*
D03*
X750887Y388937D02*
G54D39*
D03*
X722312Y412749D02*
G54D40*
D03*
X754062Y412749D02*
G54D41*
D03*
X942974Y946150D02*
G54D42*
D03*
X388937Y425450D02*
G54D42*
D03*
X146676Y900113D02*
G54D43*
D03*
X146676Y768350D02*
G54D43*
D03*
M02*
